<svg width="323" height="516" viewBox="0 0 323 516" fill="none" xmlns="http://www.w3.org/2000/svg">
<path d="M187.686 218.644C189.346 223.321 198.167 233.981 212.17 238.666L257.481 248.276C257.481 247.246 257.52 246.224 257.574 245.205C262.155 247.197 269.176 245.957 271.446 246.333L257.643 244.249C258.306 234.74 261.045 225.66 261.423 216.331C261.473 215.087 217.761 206.439 212.775 204.412C210.563 203.514 204.251 189.09 200.556 179.179L215.461 170.49L209.603 159.992L227.329 149.088C230.203 146.98 232.944 144.703 235.536 142.271L244.896 144.267C244.927 144.267 246.988 144.437 247.239 144.437C250.426 144.437 251.243 142.019 251.77 139.289L257.05 102.065C257.739 95.2971 259.049 92.3756 252.537 91.7251L233.837 88.7509C229.718 88.2621 228.805 93.5149 228.828 93.5186L225.475 114.244C221.005 113.947 213.95 116.425 212.428 120.963C210.775 125.904 210.501 128.302 210.501 133.608L199.396 141.752L198.625 140.368L192.734 144.128C187.62 123.723 173.371 135.052 168.242 139.616C169.752 133.6 171.783 126.295 171.783 123.824C171.783 123.493 187.127 119.884 186.957 111.262C186.672 96.6582 181.99 85.9573 176.049 80.1669C181.474 75.9143 185.254 71.1429 184.264 66.3263C181.567 53.2603 157.491 65.1419 150.15 77.2679C147.769 81.1971 146.509 91.9319 150.686 94.3985C150.331 96.8761 150.127 99.3721 150.073 101.873C149.861 109.555 149.303 119.895 148.416 124.527C139.669 119.263 126.352 122.004 115.698 141.132C118.337 136.721 85.1023 110.946 62.4794 150.261C61.8821 151.306 57.2658 158.296 51.5243 166.959C41.6174 181.909 28.3504 201.848 26.5393 204.879C15.854 222.742 23.8035 232.477 37.4944 232.774L78.7597 233.673C74.6983 245.009 71.9778 253.717 72.0472 256.586L77.4842 256.65C74.8254 266.708 75.1723 276.296 76.9178 284.91C79.6383 298.217 85.7805 309.192 89.5914 315.987L89.522 316.032H89.6184C90.1309 316.945 90.6048 317.784 91.0171 318.54L91.0441 318.979L89.522 316.032L48.145 432.836C45.3898 438.653 32.7085 454.832 31.0554 460.183C26.8168 459.081 23.8073 469.838 29.0209 470.872C36.9934 472.459 31.4523 468.846 33.4946 475.215C34.1997 477.418 44.4612 476.373 43.7483 476.516C40.13 486.713 54.1523 482.385 53.8672 483.348C50.4801 495.38 66.0976 487.405 64.8646 489.924C61.6779 496.429 69.9471 497.042 71.7158 496.316C79.0988 493.342 73.7118 498.08 76.6905 499.557C87.1638 504.746 90.5817 496.948 90.8245 496.891C92.1231 503.077 106.858 499.978 103.047 490.424C106.642 469.895 85.6649 471.549 84.4857 470.226C81.3491 466.706 78.0121 457.415 81.2566 447.797L79.5496 447.045L116.542 368.303L114.48 364.344H114.592L160.666 453.96C160.238 454.456 159.988 455.313 161.437 457.381C165.648 469.105 165.81 481.844 169.282 486.709C168.126 487.773 169.155 497.237 170.696 497.561C176.334 498.764 177.682 490.733 179.247 495.433C180.114 498.035 184.561 495.606 185.798 494.583C189.74 491.345 187.967 489.725 190.082 491.526C195.789 496.384 199.531 487.608 199.589 487.585C203.284 489.593 200.402 490.484 206.972 489.315C212.752 488.285 214.385 483.348 214.717 483.777C217.206 486.973 222.982 485.856 224.635 483.025C226.843 479.212 225.491 480.49 226.431 480.851C230.284 482.329 230.67 482.118 234.346 480.043C236.13 479.039 237.109 476.174 237.209 476.14C237.733 477.55 241.521 477.873 242.796 477.561C244.248 477.219 245.538 476.406 246.454 475.255C247.37 474.104 247.859 472.683 247.84 471.226L246.622 467.139C247.644 466.011 237.336 447.808 218.574 452.099C200.047 456.34 198.19 446.853 195.103 444.823L178.418 393.946L143.176 286.429C146.995 286.388 150.808 286.106 154.589 285.583C154.613 290.095 154.636 294.528 154.636 298.743V285.583C158.212 285.119 161.711 284.196 165.04 282.838L154.636 283.083V264.884C158.227 264.978 161.872 265.035 165.606 265.035L154.636 264.742V257.56L174.596 257.793C174.619 257.793 185.956 214.384 191.531 184.443L195.223 182.292L187.686 218.644ZM224.874 117.925L224.685 119.098C223.883 120.255 222.981 121.343 221.988 122.35C221.51 122.82 220.94 123.775 220.223 124.016C220.454 123.768 222.986 120.553 224.874 117.925ZM91.0441 318.581C91.3062 319.062 91.5489 319.513 91.7608 319.927L101.394 338.697H101.217L91.0326 318.987C91.048 318.848 91.0441 318.716 91.0441 318.581ZM102.989 490.541C102.462 491.161 100.654 491.391 98.4579 491.432C100.897 491.18 102.593 490.819 102.97 490.541H102.989ZM114.076 363.509L101.575 339.317H101.753L114.191 363.505L114.076 363.509ZM154.586 264.734L139.561 264.328C144.494 264.531 149.472 264.734 154.566 264.866C154.52 270.746 154.543 276.939 154.566 283.068L142.162 283.357L141.754 282.116L122.957 273.95L122.426 263.869C122.229 263.839 122.144 267.599 122.164 273.604L99.664 263.828C103.406 263.659 107.07 263.576 110.685 263.557L98.2768 263.226L83.2488 256.695L154.663 257.56C154.616 259.865 154.586 262.271 154.566 264.734H154.586Z" fill="white"/>
<path d="M283.268 260.794L284.894 251.394L278.12 251.623L271.977 247.525L264.81 247.122L264.178 257.274C265.488 261.877 279.353 263.2 283.268 260.794Z" fill="white"/>
<path d="M266.205 199.434L264.664 205.916L261.234 210.955L265.088 211.477L265.153 220.641C264.282 220.422 263.053 220.152 261.169 219.828L268.798 227.104L274.089 236.53C273.449 237.658 273.411 239.143 274.185 240.719C274.44 241.234 270.833 243.494 272.259 246.513C272.894 247.852 274.147 248.145 278.424 250.341C281.988 252.179 291.263 250.924 290.863 245.423C290.778 244.235 291.34 243.404 292.019 242.512C292.33 242.214 292.596 241.873 292.808 241.501C293.734 240.297 294.24 238.836 294.253 237.331C294.256 235.808 294.517 234.297 295.024 232.857C295.144 232.554 295.237 232.242 295.302 231.924C295.409 231.548 295.517 231.15 295.625 230.676C296.434 227.175 294.034 224.731 290.4 223.156L291.941 215.113L296.531 215.734L294.631 209.53L294.874 203.108L266.205 199.434ZM276.343 234.823C275.588 235.032 274.915 235.461 274.416 236.053C274.623 235.721 274.904 235.438 275.237 235.225C275.57 235.012 275.948 234.875 276.343 234.823Z" fill="white"/>
<path d="M223.237 162.681C223.07 162.55 222.89 162.436 222.701 162.338L223.237 162.681Z" fill="white"/>
<path d="M244.095 176.013L251.455 180.713C250.568 177.183 249.836 173.596 244.095 176.013Z" fill="white"/>
<path d="M258.88 185.451L251.466 180.713C252.318 184.063 253.343 187.365 258.88 185.451Z" fill="white"/>
<path d="M110.692 263.576L122.433 263.888L139.561 264.328C129.951 263.952 120.507 263.516 110.692 263.576Z" fill="white"/>
<path d="M55.4239 161.048C51.5706 160.247 52.0715 159.138 49.825 162.214C46.7423 166.433 41.6405 175.408 41.6405 175.408C41.8024 176.16 44.4573 175.818 45.2473 176.404L55.4239 161.048Z" fill="white"/>
<path d="M265.596 198.577L263.912 205.604L259.863 211.553L264.298 212.151L264.352 219.671C263.724 219.531 262.957 219.373 262.009 219.204C262.09 218.268 262.159 217.324 262.198 216.388C262.24 215.328 262.248 215.076 236.38 209.327C226.007 207.018 215.283 204.634 213.052 203.728C212.135 203.352 209.172 198.231 204.833 187.906C203.623 185.03 202.475 182.138 201.496 179.54L200.802 179.942L200.117 180.345L195.943 182.777L195.026 183.311L194.109 183.845L186.911 218.49L186.869 218.697L186.938 218.896C188.645 223.701 197.728 234.65 211.915 239.395L258.271 249.235V248.277C258.271 247.619 258.271 246.961 258.31 246.303C260.162 246.841 262.083 247.121 264.016 247.134L263.384 257.376L263.419 257.5C263.851 259.004 265.384 260.305 267.85 261.241C270.761 262.256 273.831 262.765 276.921 262.745C279.734 262.745 282.27 262.32 283.684 261.455L283.984 261.271L285.672 251.544C286.847 251.296 287.968 250.851 288.986 250.228C290.863 249.036 291.776 247.355 291.633 245.374C291.568 244.475 291.988 243.832 292.608 243.035C292.959 242.69 293.258 242.299 293.498 241.873C294.482 240.563 295.021 238.985 295.04 237.361C295.026 235.92 295.259 234.487 295.729 233.12L295.752 233.041C295.867 232.746 295.958 232.443 296.026 232.135C296.134 231.759 296.246 231.33 296.357 230.841C296.607 229.876 296.607 228.865 296.357 227.9C296.108 226.935 295.617 226.045 294.928 225.311C293.896 224.203 292.648 223.308 291.256 222.679L292.554 215.952L297.614 216.636L295.413 209.432L295.679 202.435L265.596 198.577ZM292.862 214.455L287.21 213.703L269.719 211.312L265.866 210.789L265.095 210.684L264.302 210.575L262.587 210.346L265.211 206.492L294.026 210.207L295.425 214.783L292.862 214.455ZM294.045 203.773L293.864 208.661L265.673 205.014L266.806 200.288L294.045 203.773ZM258.391 244.693C258.687 240.095 259.485 235.564 260.263 231.157C260.868 227.751 261.477 224.258 261.859 220.742C262.91 220.934 263.72 221.118 264.363 221.253V221.765C264.529 224.288 268.66 226.277 276.64 227.649C278.112 227.905 279.595 228.108 281.01 228.273C283.133 228.931 286.743 230.83 288.119 233.067C288.774 234.135 288.843 235.128 288.327 236.098C288.196 236.403 288.004 236.68 287.761 236.91C287.518 237.141 287.229 237.321 286.913 237.44C285.599 237.839 283.672 236.831 281.807 235.857C280.066 234.951 278.278 234.019 276.651 234.041V233.966C276.482 234 276.32 234.037 276.162 234.083C275.987 234.107 275.815 234.145 275.646 234.195C274.88 234.445 274.225 234.942 273.788 235.605C273.607 235.825 273.45 236.061 273.318 236.312C272.644 237.613 272.652 239.181 273.318 240.753C273.234 240.862 273.118 240.997 273.014 241.129C272.243 242.039 270.91 243.595 271.149 245.558C270.108 245.5 269.065 245.5 268.024 245.558C265.226 245.641 261.319 245.769 258.391 244.693ZM271.403 246.494C271.43 246.573 271.465 246.652 271.5 246.731H271.361L271.403 246.494ZM290.057 245.475C290.157 246.885 289.506 248.047 288.131 248.927C285.433 250.657 280.875 250.739 278.782 249.679C277.757 249.149 276.89 248.724 276.197 248.382C273.939 247.273 273.338 246.953 272.987 246.212C272.247 244.652 273.207 243.332 274.247 242.114L274.42 241.915C277.626 244.37 281.318 245.675 284.925 245.675C285.786 245.675 286.647 245.599 287.495 245.449C288.386 245.295 289.256 245.043 290.088 244.697C290.05 244.955 290.04 245.216 290.057 245.475ZM293.444 237.312C293.398 239.482 292.477 240.655 291.583 241.794L291.41 242.012C290.473 242.904 288.963 243.603 287.198 243.923C285.237 244.276 280.123 244.614 274.837 240.245C274.293 239.061 274.247 237.914 274.721 237C274.721 236.967 274.763 236.933 274.783 236.895H274.813C274.883 236.766 274.96 236.64 275.045 236.519C275.425 236.078 275.928 235.754 276.493 235.587C277.723 235.47 279.418 236.339 281.063 237.211C282.817 238.125 284.616 239.061 286.273 239.061C286.649 239.063 287.023 239.01 287.383 238.903C288.321 238.596 289.102 237.948 289.564 237.094V237.143C290.973 236.96 292.325 236.483 293.529 235.745C293.491 236.203 293.46 236.715 293.444 237.312ZM293.745 226.322C294.269 226.875 294.642 227.548 294.831 228.278C295.02 229.008 295.019 229.773 294.828 230.503C294.743 230.879 294.658 231.195 294.573 231.499C294.573 231.571 294.546 231.646 294.535 231.721C294.435 232.067 294.338 232.379 294.246 232.673C293.78 233.755 292.724 234.876 290.207 235.455C290.372 234.345 290.12 233.214 289.498 232.27C288.658 230.905 287.186 229.672 285.595 228.695C287.46 228.826 288.843 228.875 289.329 228.875H289.491L290.1 228.834L290.982 224.28C292.023 224.79 292.96 225.482 293.745 226.322Z" fill="black"/>
<path d="M248.645 471.196V471.087L247.489 467.135C247.57 466.702 247.489 465.917 246.688 464.439L246.653 464.326H246.626C246.476 464.044 246.303 463.74 246.098 463.405C245.089 461.75 235.729 447.361 218.428 451.32C204.209 454.576 200.275 449.621 197.67 446.342C197.136 445.6 196.514 444.922 195.816 444.323L144.266 287.155C147.462 287.085 150.652 286.849 153.823 286.448C153.846 290.727 153.865 294.788 153.865 298.732H155.445C155.445 294.716 155.445 290.584 155.403 286.222C158.262 285.8 161.072 285.103 163.791 284.143L156.2 307.496L157.707 307.959L173.741 258.538H174.947L175.182 258.308C175.347 258.146 175.424 258.071 178.573 245.494C180.299 238.617 182.9 228.036 185.509 216.689C188.396 204.155 190.65 193.557 192.271 184.894L191.362 185.424L190.452 185.954L157.738 205.029C143.866 212.549 133.354 216.279 125.967 216.279C122.825 216.279 120.242 215.606 118.218 214.26C110.037 208.853 111.987 193.956 113.871 179.532C114.673 173.407 115.413 167.624 115.413 162.646H116.993C116.993 167.722 116.222 173.55 115.424 179.728C113.602 193.681 111.713 208.108 119.089 212.981C125.362 217.117 137.739 214.091 156.932 203.69L190.152 184.323L190.815 183.947L190.876 183.913L191.724 183.42L192.63 182.89L194.522 181.788L195.439 181.251L196.356 180.717L199.554 178.856L200.244 178.453L200.934 178.047L214.362 170.219L208.879 160.39L209.311 161.071L209.758 160.796L210.428 160.383L210.613 160.27L227.718 149.742L227.776 149.704C230.56 147.659 233.221 145.459 235.745 143.113L244.811 145.049H244.873L245.359 145.087C246.453 145.174 247.039 145.215 247.208 145.215C251.401 145.215 252.129 141.455 252.518 139.44L257.805 102.163C257.89 101.313 257.99 100.524 258.078 99.7903C258.464 96.6695 258.734 94.4173 257.481 92.8869C256.606 91.8229 255.104 91.2325 252.611 90.9844L233.903 88.0065C230.022 87.5477 228.354 91.319 228.019 93.3757C228.017 93.397 228.017 93.4184 228.019 93.4397L224.778 113.469C219.946 113.432 213.218 116.101 211.65 120.745C209.997 125.685 209.696 128.163 209.681 133.243L199.662 140.59L199.489 140.718L198.849 141.184L198.383 141.526L198.348 141.462L193.624 144.47L192.934 144.914L192.24 145.354L184.649 150.197L183.933 150.656L151.179 171.569C151.073 171.682 150.928 171.754 150.771 171.772L146.447 172.746L149.888 170.55V170.569L150.536 170.223C153.091 168.843 154.678 167.794 155.749 166.801L191.859 143.76L192.541 143.324L193.219 142.891C191.612 137.191 189.119 133.615 185.755 132.224C180.16 129.908 173.648 134.134 169.625 137.405C169.722 137.029 169.814 136.672 169.91 136.304C171.186 131.344 172.396 126.64 172.565 124.309L173.151 124.106C176.804 122.843 187.913 119 187.759 111.232C187.482 96.9966 183.073 86.2994 177.247 80.2082C182.499 75.9519 186.064 71.1391 185.046 66.1759C184.333 62.7092 182.145 60.581 178.715 60.0133C170.307 58.6258 155.279 67.2889 149.476 76.8731C146.968 81.0091 145.704 91.5597 149.842 94.7594C149.523 97.1104 149.332 99.4763 149.272 101.847C149.014 111.082 148.451 119.102 147.823 123.298C146.149 122.433 144.337 121.85 142.463 121.576C132.976 120.173 123.582 126.49 116.137 138.842C116.091 138.751 116.037 138.661 115.983 138.567C113.787 134.856 104.808 127.975 93.0286 127.975H92.8398C84.3894 128.028 72.1435 131.867 61.7896 149.866C61.3542 150.618 58.707 154.641 55.0617 160.172C54.4105 160.014 53.9057 159.856 53.4896 159.725C51.3741 159.048 50.8963 159.413 49.1815 161.763C46.0989 165.97 41.1589 174.663 40.9508 175.032L40.8082 175.28L40.866 175.562C41.0703 176.528 42.2301 176.645 43.3514 176.758C43.5325 176.776 43.7791 176.799 44.0181 176.833C35.56 189.587 27.2792 202.089 25.8534 204.469C19.1409 215.692 20.3123 222.543 22.4741 226.314C25.0519 230.826 30.3811 233.372 37.4751 233.526L77.6577 234.402C73.7619 245.355 71.1841 253.721 71.2534 256.586V257.338L76.4516 257.398C70.2361 282.628 82.3973 304.804 88.6743 315.987L47.3936 432.547C46.199 435.051 43.1279 439.525 39.8796 444.263C35.113 451.208 31.6681 456.344 30.5006 459.344C29.7894 459.331 29.0927 459.541 28.5122 459.942C26.3467 461.378 24.9787 465.206 25.5837 468.158C25.969 470.06 27.125 471.293 28.8436 471.632C29.9597 471.873 31.0936 472.027 32.2346 472.094C32.1344 472.846 32.2346 473.907 32.7201 475.452C33.2403 477.073 36.2189 477.64 42.654 477.332C42.0952 479.441 42.2956 481.092 43.2435 482.288C45.1895 484.702 49.5476 484.299 52.1524 484.059L52.8692 483.998C52.2873 486.559 52.5609 488.394 53.6899 489.59C55.6782 491.695 59.7011 490.951 62.3599 490.462C62.857 490.372 63.4235 490.266 63.855 490.21C62.7722 492.842 63.5622 494.496 64.46 495.421C66.4445 497.47 70.5251 497.64 71.9971 497.049C74.0317 496.23 74.7754 496.128 75.049 496.143C75.0411 496.366 75.0179 496.589 74.9796 496.809C74.8409 497.783 74.5943 499.418 76.3129 500.264C78.8098 501.501 81.1372 502.114 83.2489 502.114C84.6821 502.129 86.0984 501.811 87.3799 501.184C88.6614 500.558 89.771 499.641 90.6164 498.512C91.325 499.58 92.4298 500.339 93.6991 500.629C95.2924 500.999 96.9574 500.953 98.5271 500.497C100.097 500.041 101.516 499.191 102.643 498.031C104.515 496 104.932 493.286 103.833 490.368C104.774 484.803 104.007 480.287 101.552 476.948C97.722 471.733 90.7937 470.658 87.0675 470.083C86.3726 469.998 85.685 469.865 85.0098 469.684C81.9002 466.135 78.9216 457.137 81.985 448.057L82.2046 447.406L80.5746 446.654L116.611 369.984L159.768 453.907C159.156 455.14 159.988 456.633 160.747 457.724C162.674 463.138 163.749 468.778 164.693 473.764C165.726 479.212 166.62 483.946 168.384 486.732C167.614 488.71 168.257 493.774 168.862 495.876C169.305 497.38 169.822 498.132 170.546 498.305C170.973 498.398 171.408 498.444 171.845 498.444C174.426 498.444 176.118 496.707 177.185 495.609C177.468 495.298 177.776 495.01 178.106 494.748C178.286 495.032 178.424 495.34 178.515 495.662C178.626 496.04 178.836 496.384 179.122 496.662C179.409 496.939 179.764 497.139 180.152 497.245C182.391 497.865 185.643 495.741 186.318 495.162C187.514 494.247 188.495 493.093 189.196 491.778L189.582 492.094C191.181 493.459 192.818 493.974 194.445 493.658C197.057 493.135 198.907 490.537 199.924 488.665C200.353 488.949 200.742 489.288 201.08 489.672C202.151 490.8 202.718 490.845 207.114 490.048C211.58 489.251 213.75 486.288 214.717 484.89C215.383 485.466 216.164 485.901 217.011 486.167C217.858 486.434 218.752 486.526 219.638 486.439C222.1 486.277 224.331 485.066 225.321 483.359C225.772 482.577 226.092 482.002 226.292 481.585C230.207 483.089 230.893 482.833 234.743 480.663C236.037 479.934 236.912 478.471 237.44 477.445C239.047 478.452 241.998 478.509 243 478.264C244.623 477.884 246.064 476.977 247.09 475.693C248.115 474.409 248.664 472.824 248.645 471.196ZM199.612 142.572L200.251 142.105L200.425 141.978L211.28 134.036V133.66C211.28 128.502 211.538 126.118 213.168 121.252C214.432 117.492 220.327 115.097 224.547 115.037C224.82 115.037 225.082 115.037 225.341 115.056C225.518 115.056 225.691 115.071 225.861 115.101C225.687 115.394 225.445 115.763 225.159 116.176C224.874 116.59 224.504 117.12 224.123 117.647C222.362 120.079 220.042 123.057 219.634 123.538L217.842 125.655L220.505 124.757C221.217 124.516 221.745 123.877 222.169 123.366C222.316 123.189 222.454 123.02 222.555 122.907C222.832 122.64 223.117 122.328 223.406 121.997C223.695 121.666 224.065 121.219 224.404 120.782C224.743 120.346 225.082 119.887 225.429 119.399C227.313 116.767 229.317 113.405 231.159 110.326C233.209 106.908 235.756 102.652 236.554 102.291C237.529 101.964 238.808 101.693 239.374 102.291C240.06 102.998 239.941 104.949 239.116 107.487C238.423 108.273 237.494 110.04 236.08 112.751C234.396 116 232.092 120.448 230.805 121.151L231.575 122.497C233.159 121.632 235.024 118.199 237.486 113.447C237.995 112.465 238.511 111.469 238.977 110.619L239.417 110.822L239.775 110.179C243.131 104.144 245.17 102.99 246.28 103.088C246.461 103.08 246.642 103.119 246.803 103.202C246.963 103.286 247.098 103.41 247.193 103.562C248.256 105.442 245.07 111.612 243.725 114.251C243.208 115.255 242.827 115.992 242.673 116.425C240.804 120.053 237.035 127.043 236.265 127.705C236.332 127.659 236.408 127.625 236.488 127.607L236.847 129.111C237.232 129.024 237.59 128.938 239.775 125.11L239.17 126.922L244.106 117.075C245.621 114.067 246.449 113.635 246.615 113.578C247.027 113.954 247.513 116.481 246.434 121.993C245.181 128.385 242.58 134.382 235.259 141.462C235.039 141.677 234.816 141.891 234.585 142.105L233.891 142.748C231.648 144.776 229.303 146.692 226.863 148.49L209.869 158.931L209.831 158.954L208.228 156.416L200.806 144.73L199.5 142.666L199.612 142.572ZM237.852 97.4516C237.606 97.9291 237.028 98.6661 236.515 98.7676C234.342 99.2 235.328 96.7673 235.594 96.0153C236.558 93.3118 239.189 94.8384 237.852 97.4629V97.4516ZM237.968 475.835L237.698 475.114L236.958 475.373C236.619 475.49 236.515 475.726 236.334 476.125C236.014 476.821 235.178 478.671 233.968 479.344C230.396 481.355 230.234 481.449 226.805 480.129C226.763 479.976 226.675 479.839 226.552 479.737C226.429 479.634 226.276 479.57 226.115 479.554C225.925 479.538 225.735 479.586 225.578 479.692C225.421 479.798 225.307 479.954 225.256 480.133C224.879 480.987 224.447 481.816 223.961 482.615C223.237 483.863 221.464 484.788 219.545 484.916C217.776 485.032 216.254 484.442 215.364 483.295C215.283 483.189 215.177 483.104 215.055 483.047C214.933 482.99 214.798 482.963 214.663 482.968C214.158 482.968 213.892 483.344 213.507 483.927C212.625 485.198 210.79 487.841 206.852 488.544C202.914 489.247 202.768 489.161 202.271 488.631C201.625 487.925 200.855 487.338 199.997 486.897L199.639 486.706L199.253 486.879C199.053 486.978 198.898 487.149 198.822 487.356C197.481 490.071 195.766 491.819 194.117 492.146C193 492.372 191.805 491.962 190.61 490.932C189.805 490.248 189.397 489.905 188.819 490.014C188.241 490.123 188.048 490.537 187.851 490.951C187.242 492.135 186.369 493.172 185.297 493.985C184.341 494.767 181.806 496.106 180.573 495.76C180.432 495.726 180.303 495.654 180.202 495.552C180.102 495.45 180.032 495.323 180.002 495.184C179.709 494.305 179.293 493.383 178.442 493.192C177.59 493 176.835 493.714 176.026 494.545C174.835 495.771 173.351 497.286 170.943 496.801C170.122 496.023 169.375 490.545 169.598 488.191C169.614 487.905 169.672 487.622 169.772 487.352H169.822L170.7 487.108L245.555 466.24L245.752 466.898L245.994 467.71L246.229 468.507L247.066 471.316C247.054 472.578 246.61 473.8 245.805 474.787C245 475.775 243.88 476.472 242.623 476.768C241.297 477.106 238.245 476.595 237.968 475.847V475.835ZM185.948 446.425C185.89 437.961 185.882 427.704 185.948 419.398L194.102 444.255L185.948 446.425ZM184.372 446.842L181.351 447.647C177.166 446.256 171.429 446.613 166.6 446.917C164.959 447.019 163.398 447.117 162.03 447.139C160.724 442.469 160.786 433.205 160.909 423.278C163.352 423.436 165.868 423.654 168.365 423.853C173.213 424.26 178.226 424.677 182.384 424.677V423.135C178.291 423.135 173.521 422.737 168.512 422.319C165.98 422.109 163.421 421.895 160.94 421.737C161.063 411.652 161.171 401.293 159.88 394.702C162.963 394.807 166.045 394.886 169.336 394.886C172.034 394.886 174.85 394.834 177.875 394.71L184.449 414.751C184.299 423.752 184.299 436.664 184.368 446.853L184.372 446.842ZM93.5758 349.624C93.1057 344.83 92.7396 341.036 92.6433 339.626C95.2289 339.772 98.1304 339.923 101.232 340.073L113.278 363.498C106.342 363.167 100.134 362.844 94.8089 362.535C94.4158 358.328 93.9996 353.981 93.5758 349.624ZM91.9227 294.096C91.9613 291.058 91.9959 287.958 92.0267 284.797C99.4097 284.865 107.398 285.433 115.235 285.989L121.528 286.429C121.647 292.87 121.825 299.83 122.048 306.496C122.09 307.741 122.137 309.057 122.187 310.429C110.75 309.831 98.8202 310.572 91.7917 313.813C91.7609 307.211 91.8379 300.736 91.9227 294.096ZM92.073 275.758C92.073 274.014 92.1886 272.318 92.3042 270.679C92.4737 268.235 92.6125 266.208 92.3042 264.73C93.5486 264.832 94.7984 264.854 96.0458 264.798C104.908 264.26 113.247 264.249 121.52 264.448C121.393 265.794 121.308 269.047 121.381 277.322C121.405 279.703 121.439 282.241 121.482 284.88L115.316 284.451C107.452 283.891 99.4406 283.323 92.0075 283.252C92.0511 280.8 92.073 278.303 92.073 275.758ZM122.329 264.64L122.356 264.467H122.93C122.848 264.535 122.752 264.586 122.649 264.616C122.545 264.646 122.436 264.654 122.329 264.64ZM123.755 339.43C116.372 339.171 108.866 338.866 102.238 338.558L92.466 319.6C92.2772 319.224 92.0807 318.829 91.8341 318.408C91.8341 317.453 91.811 316.502 91.8033 315.554C98.3925 312.17 110.588 311.418 122.245 312.027C122.572 320.566 123.061 330.91 123.74 339.43H123.755ZM91.888 321.901L100.408 338.471C97.5678 338.336 94.9206 338.197 92.5431 338.065C92.204 332.44 91.9998 327.094 91.888 321.901ZM103.063 340.156C109.532 340.457 116.769 340.75 123.871 340.998C124.449 347.792 125.162 353.207 126.021 355.241C126.556 356.504 126.792 360.163 126.953 364.118L123.1 363.949C120.331 363.829 117.655 363.703 115.074 363.573L103.063 340.156ZM155.006 347.507C155.191 352.771 155.414 358.982 155.699 365.205C148.528 364.979 139.037 364.63 128.537 364.186C128.379 359.967 128.113 356.143 127.481 354.651C126.768 352.962 126.083 348.259 125.462 341.051C136.583 341.427 147.249 341.682 154.05 341.682H154.794C154.859 343.446 154.932 345.431 155.006 347.507ZM127.007 365.686C127.046 366.95 127.077 368.217 127.108 369.42C127.273 375.917 127.377 377.76 127.801 378.369L129.111 377.5L129.142 377.557C128.88 376.94 128.78 372.924 128.687 369.382C128.657 368.19 128.626 366.965 128.591 365.754C138.698 366.186 148.362 366.544 155.772 366.769C156.262 377.083 156.928 387.242 157.95 393.089L153.904 392.924C148.74 392.706 143.396 392.48 137.357 392.48V394.022C143.365 394.022 148.686 394.247 153.834 394.462L158.246 394.642C159.58 401.034 159.472 411.476 159.348 421.643C153.834 421.338 148.794 421.368 145.315 422.357L115.914 365.171C119.597 365.359 123.324 365.528 127.007 365.686ZM159.564 393.161C158.539 387.468 157.853 377.241 157.356 366.818C161.857 366.946 165.387 367.021 167.483 367.021C168.007 367.021 168.438 367.021 168.774 367.021L177.363 393.209C170.743 393.458 165.101 393.36 159.564 393.161ZM157.283 365.254C156.994 359.001 156.774 352.756 156.586 347.454C156.505 345.198 156.435 343.273 156.374 341.671C158.162 341.652 159.545 341.603 160.42 341.528L168.277 365.491C166.581 365.502 162.697 365.419 157.283 365.254ZM159.926 340.024C159.094 340.084 157.869 340.118 156.312 340.133C156.158 336.324 156.054 334.7 155.927 334.271L154.42 334.734C154.516 335.11 154.628 337.185 154.747 340.141C148.054 340.141 136.945 339.878 125.347 339.483C124.776 332.414 124.268 323.164 123.848 312.102C132.325 312.644 140.332 313.885 145.534 315.325L145.966 313.843C140.544 312.339 132.375 311.065 123.786 310.52C123.747 309.463 123.709 308.395 123.674 307.309C123.416 299.822 123.239 292.727 123.127 286.531C129.069 286.907 134.964 287.215 140.556 287.215C141.249 287.215 141.931 287.215 142.613 287.215L159.926 340.024ZM143.742 285.64L142.513 281.88L141.01 282.376L142.097 285.685C136.055 285.749 129.601 285.429 123.085 285.004C122.9 274.134 122.927 266.317 123.085 264.508C128.094 264.644 133.103 264.854 138.19 265.069C143.276 265.283 148.447 265.497 153.757 265.64C153.715 271.889 153.757 278.473 153.78 284.929C150.452 285.351 147.102 285.588 143.746 285.64H143.742ZM164.385 282.256C161.489 283.408 158.464 284.221 155.372 284.677C155.337 278.308 155.306 271.822 155.349 265.666C158.716 265.745 162.138 265.798 165.625 265.798V264.256C162.157 264.256 158.728 264.204 155.36 264.121C155.36 262.147 155.403 260.211 155.437 258.323L172.087 258.519L164.385 282.256ZM37.5098 231.992C30.9976 231.853 26.1463 229.57 23.8536 225.566C21.0406 220.678 22.2043 213.639 27.2175 205.262C28.6317 202.901 36.9665 190.324 45.4476 177.528L46.0796 176.577L47.0391 175.133C48.7114 172.606 50.3683 170.114 51.9405 167.737C52.3605 167.737 52.7921 167.756 53.2507 167.756C56.5799 167.756 60.9342 167.5 65.5004 167.23C70.213 166.955 75.0875 166.669 78.9408 166.669H81.0987C86.7939 166.669 97.1748 166.643 103.833 167.045L104.658 167.098L105.221 167.139C102.288 174.799 99.0552 183.157 95.8493 191.267C95.0786 193.234 94.3079 195.185 93.5373 197.107C89.2986 207.83 85.2873 217.689 82.4319 224.374L82.1622 224.434L81.6613 224.555L81.2952 224.637L81.1295 224.961V224.995C78.2549 230.635 77.8465 232.27 77.9389 232.891L37.5098 231.992ZM56.7071 160.552C60.2136 155.243 62.7299 151.408 63.1653 150.648C73.1493 133.296 84.821 129.592 92.836 129.543H93.044C104.049 129.543 112.657 136.033 114.623 139.364C115.104 140.176 115.097 140.616 115.008 140.752L114.939 140.895C114.934 140.914 114.928 140.933 114.919 140.951C114.365 142.56 113.644 144.579 112.789 146.926C110.966 151.904 108.523 158.424 105.76 165.617L105.228 165.575L104.404 165.515C97.7913 165.083 87.3411 165.102 81.0717 165.113H78.9408C75.0413 165.113 70.1437 165.399 65.4079 165.677C60.6722 165.955 56.264 166.218 52.9694 166.192L56.052 161.507L56.6994 160.529L56.7071 160.552ZM103.999 222.088C98.8857 225.438 90.8476 229.698 80.879 231.657L80.2895 231.77L79.9042 231.842L79.6691 231.89C80.4655 229.867 81.3658 227.884 82.3664 225.95H82.4242L82.6092 225.908L83.5687 225.675C95.3984 222.708 105.282 216.681 111.64 208.552C112.319 210.354 113.091 212.12 113.952 213.846C113.081 214.959 109.559 218.456 103.999 222.088ZM178.449 61.5361C181.216 61.9948 182.915 63.6605 183.497 66.4842C184.38 70.7819 181.027 75.1322 176.11 79.1141L175.467 79.6217C175.263 79.7833 175.051 79.945 174.839 80.1029C167.949 85.303 158.655 89.7285 153.337 92.2665L151.715 93.0449L150.856 93.4585L150.759 93.5073C150.53 93.3157 150.324 93.0987 150.147 92.8606C147.688 89.5819 148.833 80.9753 150.836 77.6627C155.896 69.308 168.793 61.4082 176.785 61.4082C177.342 61.4056 177.899 61.4483 178.449 61.5361ZM150.004 117.936C150.389 113.537 150.69 107.694 150.852 101.911C150.912 99.574 151.101 97.242 151.418 94.9249C152.15 94.5489 153.029 94.1465 154.031 93.669C159.861 90.8904 169.086 86.4949 175.995 81.2272C177.163 82.448 178.214 83.7708 179.135 85.1789C182.218 89.8376 185.925 98.1472 186.179 111.296C186.31 117.951 176.01 121.516 172.623 122.685C171.348 123.129 171.005 123.245 171.005 123.843C171.005 125.753 169.668 130.946 168.377 135.962C168.092 137.09 167.806 138.172 167.541 139.225C167.255 139.481 166.993 139.718 166.77 139.921C166.442 140.218 166.103 140.526 165.999 140.59C165.641 140.831 164.107 140.62 162.812 140.402C162.771 140.236 162.721 140.071 162.662 139.91C162.558 139.646 162.416 139.282 158.558 137.225L157.899 136.875L157.88 136.905C156.647 131.431 153.522 126.877 149.264 124.155C149.515 122.745 149.761 120.76 150.004 117.921V117.936ZM153.954 157.269C155.198 153.133 156.535 148.708 157.422 145.042C157.487 144.786 157.545 144.534 157.603 144.29C157.661 144.046 157.726 143.756 157.784 143.497C157.957 142.707 158.104 141.966 158.215 141.293C158.262 141.026 158.3 140.771 158.331 140.522C158.362 140.274 158.397 140 158.42 139.77C158.443 139.541 158.462 139.206 158.466 138.954C158.851 139.173 159.26 139.394 159.622 139.609L160.242 139.985C160.582 140.18 160.911 140.392 161.229 140.62C161.262 140.725 161.293 140.838 161.321 140.959C161.383 141.225 161.426 141.495 161.452 141.767C161.534 142.853 161.516 143.944 161.398 145.027C161.371 145.286 161.344 145.55 161.314 145.82C161.283 146.091 161.252 146.328 161.217 146.572C160.643 150.795 159.291 155.92 158.057 158.852C157.595 159.939 157.287 160.838 156.979 161.631C156.027 164.225 155.607 165.391 152.597 167.271C152.108 167.583 151.553 167.914 150.913 168.275C151.287 166.109 152.744 161.281 153.954 157.254V157.269ZM43.5094 175.216C43.2821 175.193 42.9661 175.16 42.7041 175.118C43.9371 172.982 47.9253 166.132 50.4685 162.65C51.0543 161.845 51.6245 161.112 51.9174 160.962C52.0638 160.894 52.3297 160.962 53.0002 161.184C53.3123 161.281 53.6938 161.402 54.1562 161.53L44.9429 175.442C44.4724 175.327 43.9929 175.252 43.5094 175.216ZM78.0892 257.402L153.861 258.312C153.823 260.192 153.8 262.121 153.784 264.087C148.494 263.941 143.334 263.711 138.274 263.516C124.179 262.925 110.866 262.365 95.9687 263.264C94.538 263.325 93.1047 263.285 91.68 263.144C91.523 262.933 91.3317 262.749 91.1135 262.598C90.2581 262.016 89.0751 262.053 87.5145 262.696L86.9172 262.625C84.3737 262.262 81.8108 262.042 79.2414 261.967V263.508C81.7464 263.584 84.2449 263.8 86.7245 264.155C88.0385 264.313 89.3718 264.471 90.6665 264.599C91.0518 265.836 90.89 268.238 90.7282 270.581C90.6164 272.171 90.4931 273.965 90.4931 275.766C90.4931 278.308 90.4815 280.804 90.4584 283.256C86.1446 283.217 81.8335 283.477 77.5575 284.034C75.9738 275.86 75.704 266.843 78.0892 257.413V257.402ZM77.8696 285.531C82.039 284.995 86.2416 284.744 90.4469 284.779C90.4212 287.937 90.3865 291.033 90.3428 294.066C90.2542 300.984 90.1733 307.726 90.2157 314.625C90.0962 314.697 89.9768 314.768 89.8612 314.844C86.1543 308.241 80.5515 297.935 77.8696 285.542V285.531ZM89.7186 317.799L90.2542 318.769C90.3428 324.913 90.5509 331.237 90.9594 337.945C87.3719 337.731 84.5282 337.531 82.7864 337.355L89.7186 317.799ZM82.2585 338.855C84.0426 339.05 87.1176 339.272 91.0519 339.509V339.641C91.1405 341.028 91.495 344.687 91.9882 349.744C92.3312 353.271 92.7589 357.685 93.202 362.415C83.5956 361.84 77.0797 361.325 74.4363 360.911L82.2585 338.855ZM73.9238 362.385C76.7097 362.851 83.9848 363.408 93.36 363.968C94.2617 373.744 95.1749 384.554 95.4716 391.604C87.5723 390.544 76.7752 389.48 69.5811 389.371C69.0339 385.453 68.2902 382.508 67.3038 381.072L73.9238 362.385ZM66.6025 383.065C67.1805 384.475 67.6506 386.648 68.0243 389.371C66.7809 389.364 65.5381 389.427 64.302 389.559L66.6025 383.065ZM63.7163 391.209C65.2048 390.97 66.7129 390.868 68.2209 390.905C69.057 398.049 69.3267 408.287 69.242 418.353C63.1036 417.886 56.6185 417.364 54.5993 416.976L63.7163 391.209ZM54.083 418.413C55.6705 418.789 59.4776 419.138 69.2266 419.879C69.1302 427.681 68.822 435.273 68.3981 441.127L49.1314 432.411L54.083 418.413ZM94.1576 499.117C93.1712 498.858 91.9343 498.23 91.6183 496.734L91.4565 495.959L90.6665 496.139C90.3274 496.215 90.181 496.436 89.9806 496.741C87.1792 501.009 82.8327 501.723 77.0643 498.865C76.4323 498.55 76.4323 498.057 76.5826 496.985C76.6905 496.233 76.8099 495.395 76.124 494.872C75.8186 494.658 75.4479 494.551 75.0721 494.568C74.3014 494.568 73.1454 494.895 71.4345 495.583C70.5906 495.925 67.1689 495.891 65.6545 494.323C64.7451 493.387 64.7297 492.007 65.6044 490.221C65.7136 490.039 65.7656 489.829 65.7539 489.618C65.7423 489.406 65.6675 489.203 65.5389 489.033C65.0187 488.371 63.9976 488.563 62.1133 488.909C59.8013 489.334 56.2909 489.981 54.8999 488.507C54.056 487.619 53.9751 485.939 54.6571 483.517C54.6948 483.384 54.699 483.244 54.6695 483.11C54.64 482.975 54.5776 482.849 54.4876 482.743C54.1022 482.299 53.5435 482.367 52.0523 482.487C49.9175 482.682 45.9447 483.047 44.5344 481.295C43.8331 480.426 43.7637 479.039 44.3841 477.159L44.6885 477.095L44.5961 476.384C44.4997 475.666 43.8601 475.7 43.1857 475.738C34.7701 476.2 34.2922 475.02 34.2768 474.986C33.4869 472.527 33.9686 471.884 33.9609 471.884L34.535 471.508L33.93 470.308L33.275 470.511C33.275 470.511 32.4118 470.759 29.2058 470.135C28.1269 469.921 27.4449 469.158 27.179 467.879C26.7012 465.556 27.8032 462.33 29.4448 461.243C29.6502 461.104 29.8801 461.003 30.1229 460.946C30.3839 460.888 30.6558 460.895 30.9129 460.968C31.1277 461.029 31.3318 461.122 31.5178 461.243C31.7645 461.397 32.0226 461.551 32.2885 461.705C34.0765 462.747 36.2652 463.758 38.5656 464.819C42.103 466.45 46.1143 468.3 49.7403 470.744C52.0176 472.282 54.53 474.158 57.1888 476.144C60.9034 478.919 64.984 481.964 69.1919 484.63C73.7504 487.514 78.463 489.947 83.0369 491.105C84.7965 491.568 86.6092 491.812 88.4316 491.831C88.9171 491.831 89.8727 491.891 90.9825 491.958C94.1808 492.161 96.7625 492.27 98.7431 492.225C100.496 492.184 101.795 492.018 102.658 491.684C103.228 493.759 102.843 495.591 101.525 497.023C99.7642 498.869 96.6045 499.79 94.1384 499.136L94.1576 499.117ZM79.172 446.015L69.924 441.838C70.3749 435.927 70.7178 428.106 70.8219 420.03L72.0087 420.12C79.5882 420.688 87.3912 421.274 90.5394 421.789L79.172 446.015ZM91.2329 420.334C88.2389 419.781 80.4051 419.206 72.1435 418.574L70.8527 418.477C70.9451 408.509 70.6716 398.312 69.7892 390.935C76.8523 391.066 87.6686 392.104 95.5371 393.191C95.6335 396.311 95.5718 398.455 95.2828 399.094L96.724 399.729C97.0746 398.977 97.1825 396.721 97.1093 393.405C99.7218 393.781 101.914 394.157 103.394 394.477L91.2329 420.334ZM104.057 393.029C102.558 392.691 100.08 392.277 97.0553 391.848C96.8126 385.227 95.988 375.192 94.963 364.088C100.797 364.43 107.359 364.773 114.11 365.1L115.713 368.217L104.057 393.029ZM146.058 423.771C149.33 422.914 154.108 422.902 159.352 423.195C159.221 433.678 159.156 443.451 160.712 448.166L161.483 447.929V448.681C163.024 448.681 164.835 448.568 166.747 448.448C170.442 448.218 174.7 447.951 178.23 448.478L161.125 453.02L146.058 423.771Z" fill="black"/>
<path d="M277.28 196.787C277.981 190.805 276.197 185.951 272.39 183.469C270.862 182.491 269.086 181.945 267.259 181.891C265.432 181.837 263.626 182.278 262.04 183.165C258.641 185.011 256.179 185.631 254.718 185.011C253.2 184.364 252.695 182.379 252.16 180.243C251.582 177.957 250.984 175.592 248.915 174.746C247.112 174.013 244.623 174.626 241.074 176.679C239.825 177.404 238.893 177.66 238.303 177.431C237.509 177.134 237.089 175.836 236.642 174.46C235.825 171.933 234.716 168.474 230.034 169.448C228.257 169.824 227.04 169.775 226.412 169.324C225.784 168.873 225.641 167.767 225.518 166.53C225.36 164.823 225.163 162.703 223.059 161.642L222.335 163.011C223.576 163.639 223.772 164.812 223.946 166.669C224.08 168.143 224.223 169.677 225.487 170.565C226.523 171.317 228.076 171.433 230.377 170.941C233.483 170.294 234.23 172.027 235.147 174.911C235.687 176.573 236.242 178.295 237.752 178.856C238.843 179.262 240.16 178.983 241.894 177.98C244.888 176.242 247.054 175.626 248.314 176.145C249.651 176.69 250.129 178.581 250.626 180.585C251.204 182.864 251.855 185.447 254.094 186.398C256.082 187.244 258.853 186.635 262.81 184.488C264.142 183.74 265.661 183.366 267.197 183.408C268.733 183.45 270.228 183.905 271.515 184.725C274.813 186.876 276.343 191.2 275.711 196.588L277.28 196.787Z" fill="black"/>
<path d="M283.664 196.028L285.244 195.994C285.117 190.542 282.932 182.661 277.183 178.386C273.815 175.882 269.7 175.13 265.284 176.216L265.18 176.25C259.319 178.574 258.244 176.626 256.614 173.682C254.942 170.655 252.857 166.891 244.892 167.873L245.089 169.403C251.986 168.553 253.628 171.535 255.223 174.415C256.88 177.423 258.591 180.506 265.723 177.698C269.688 176.739 273.226 177.382 276.228 179.615C281.191 183.3 283.537 190.515 283.664 196.028Z" fill="black"/>
</svg>
