<svg width="559" height="273" viewBox="0 0 559 273" fill="none" xmlns="http://www.w3.org/2000/svg">
<path d="M482.583 261.885L482.672 261.381C494.787 260.776 542.715 265.517 542.51 250.823C542.287 234.685 525.328 213.998 507.48 190.46C507.83 190.427 508.327 189.893 509.56 188.87C509.946 188.535 505.064 182.673 504.655 182.068C501.869 177.894 502.382 177.932 499.865 179.744C493.781 167.156 511.499 161.087 503.985 140.757C509.329 127.751 497.434 116.294 478.51 121.472C476.198 120.671 473.697 120.694 472.476 122.528C471.705 123.705 469.586 121.746 465.374 123.04C462.423 123.946 463.251 125.811 461.44 127.439C460.881 127.943 457.024 130.007 456.893 133.316C455.248 134.658 453.583 136.11 451.884 137.689C451.292 137.592 450.692 137.543 450.092 137.542C444.424 137.542 439.831 141.731 439.831 146.901C439.831 147.903 440.007 148.897 440.351 149.841C440.031 150.27 439.719 150.702 439.414 151.146L424.81 138.93C425.361 153.18 401.629 165.46 397.008 174.236C396.654 174.917 396.303 175.575 395.96 176.221L374.108 165.693C368.024 161.772 353.89 151.966 353.597 151.473C353.591 151.458 353.591 151.442 353.597 151.428L358.159 150.149C363.985 149.021 374.308 147.487 382.701 146.461C385.807 146.085 403.509 142.731 411.512 140.294C414.98 140.569 421.223 138.768 424.818 138.915C429.269 139.103 433.577 135.275 435.176 131.53C435.946 129.755 438.285 125.89 441.06 121.521C445.183 118.956 453.645 114.238 451.753 110.575C451.279 109.666 450.157 109.474 448.766 109.673C450.612 106.868 452.127 104.563 452.882 103.349C457.14 96.4943 457.005 95.4527 452.389 95.543C448.774 95.6031 441.098 95.7987 439.287 96.0694C436.84 96.4454 436.467 96.765 432.737 101.416C432.32 101.935 431.897 102.479 431.465 103.048H431.434C423.442 104.315 420.745 104.657 416.375 112.264C415.316 114.106 414.576 115.339 413.967 116.445C393.263 117.088 359.535 120.957 350.233 122.434C334.82 124.852 329.876 122.972 319.202 133.459C307.642 144.822 318.505 163.246 324.624 168.769C326.666 170.615 342.318 186.287 351.439 194.905C346.372 194.754 341.174 194.491 335.825 194.044C305.438 191.502 287.169 189.223 287.169 189.223L287.123 190.032C273.833 170.766 268.692 157.361 248.247 136.843C232.698 121.231 208.607 129.699 192.138 146.141C171.716 166.536 150.272 197.413 135.279 219.739C103.82 223.838 74.6579 226.805 52.8172 226.805C52.8172 228.128 52.7941 229.474 52.7594 230.824C49.2721 231.2 46.7289 231.478 46.7289 231.478C46.5179 232.363 46.2198 233.225 45.8388 234.054C46.0199 231.734 46.1085 230.226 46.0507 230.14C35.851 214.968 41.2032 188.362 22.0792 188.911C19.5591 188.983 13.9178 257.67 12.7888 262.656C12.5961 264.13 42.3862 263.987 43.2301 262.784C43.2571 262.746 43.4883 260.457 43.812 257.106C45.7926 257.257 48.436 257.407 51.2913 257.554C51.2335 259.058 51.2026 260.498 51.2026 261.885H296.594L296.641 261.671L349.817 260.84L482.583 261.885ZM495.927 226.917C495.8 226.842 491.334 226.541 488.818 226.38C488.891 225.921 488.941 225.601 488.961 225.455C488.961 225.455 467.933 216.664 461.348 212.016C457.641 209.393 453.733 207.054 449.657 205.019C456.361 198.101 464.403 188.261 471.073 179.884C471.994 183.719 475.042 186.633 476.919 190.554C477.104 190.93 477.898 192.265 479.057 194.179C479.346 194.683 479.705 195.262 480.048 195.803C485.107 204.102 494.629 219.664 496.617 225.18C495.392 222.492 494.305 220.292 493.989 219.879L496.975 226.714C496.952 227.237 496.636 227.346 495.927 226.917V226.917ZM202.303 209.9L214.11 208.452L202.007 210.249L202.303 209.9Z" fill="white"/>
<path d="M483.25 262.66L483.342 262.126C485.743 262.047 489.326 262.126 493.392 262.231C497.318 262.321 501.738 262.427 506.285 262.427C520.276 262.427 535.447 261.434 541.027 256.035C541.76 255.366 542.341 254.555 542.732 253.653C543.124 252.752 543.317 251.78 543.3 250.801C543.096 235.84 529.043 217.453 512.813 196.161C511.433 194.356 510.034 192.517 508.632 190.667C508.805 190.528 508.994 190.366 509.214 190.175C509.433 189.983 509.734 189.727 510.073 189.445C510.79 188.847 510.215 187.998 508.948 186.291C508.127 185.163 507.075 183.858 506.304 182.907C505.842 182.324 505.403 181.779 505.318 181.647C504.994 181.162 504.717 180.737 504.474 180.361C503.372 178.677 502.933 177.977 502.093 177.831C501.453 177.718 500.937 178.015 500.193 178.545C498.185 173.57 500.116 169.664 502.443 164.964C505.464 158.873 508.874 151.977 504.828 140.772C506.127 137.486 506.424 134.173 505.618 131.045C504.231 125.676 499.838 121.701 493.534 120.141C488.91 119.013 483.839 119.205 478.506 120.656C477.68 120.383 476.816 120.23 475.944 120.201C474.094 120.175 472.684 120.829 471.813 122.134C471.44 122.16 471.066 122.128 470.703 122.04C468.86 121.661 466.947 121.753 465.151 122.307C463.024 122.961 462.5 124.134 462.037 125.168C461.802 125.812 461.42 126.396 460.92 126.875C460.866 126.924 460.677 127.055 460.507 127.172C459.278 128.026 456.461 129.985 456.149 132.959C454.649 134.187 453.154 135.493 451.664 136.877C451.153 136.81 450.638 136.776 450.123 136.775C444.031 136.775 439.071 141.321 439.071 146.905C439.072 147.857 439.219 148.803 439.507 149.713C435.222 155.556 433.145 161.418 433.365 166.96C430.209 171.435 430.887 176.8 432.209 180.872C431.496 181.891 430.667 182.944 429.731 184.102C428.575 185.542 427.28 187.17 426.012 189.028L425.604 189.633L397.055 175.864L397.733 174.578C399.34 171.525 403.567 167.848 408.04 163.952C416.217 156.838 425.45 148.803 425.627 139.682C430.105 139.415 434.301 135.617 435.915 131.827C436.644 130.12 438.94 126.337 441.649 122.077L442.651 121.464C447.379 118.573 454.523 114.2 452.469 110.233C452.256 109.835 451.938 109.499 451.548 109.26C451.158 109.021 450.71 108.887 450.25 108.872C451.745 106.59 452.92 104.796 453.568 103.751C456.242 99.4496 457.301 97.2988 456.512 95.9527C455.907 94.9263 454.489 94.7383 452.388 94.7759C449.375 94.8248 441.133 95.0165 439.179 95.3136C436.386 95.7347 435.881 96.2611 432.131 100.954C431.777 101.397 431.411 101.863 431.041 102.349C423.161 103.593 420.209 104.063 415.705 111.899C415.289 112.625 414.934 113.253 414.595 113.817C414.179 114.527 413.824 115.136 413.508 115.697C392.253 116.392 358.255 120.404 350.125 121.679C346.919 122.183 344.152 122.502 341.713 122.78C332.415 123.852 327.294 124.439 318.659 132.932C315.009 136.516 313.218 141.035 313.333 146.359C313.534 155.692 319.753 165.423 324.123 169.352C324.932 170.081 327.976 173.112 331.872 176.921C340.091 185.02 345.659 190.457 349.466 194.085C345.062 193.927 340.561 193.675 335.929 193.288C305.908 190.78 287.485 188.494 287.304 188.471L286.996 188.434C283.493 183.29 280.541 178.541 277.636 173.867C270.288 162.039 263.344 150.864 248.84 136.301C243.241 130.661 236.351 127.823 228.371 127.811H228.329C216.48 127.811 202.754 134.459 191.599 145.6C171.222 165.949 149.809 196.736 134.835 219.029C103.465 223.116 74.6655 226.03 52.8556 226.03H52.085V226.801C52.085 227.899 52.0657 229.008 52.0426 230.125C49.4609 230.392 47.4995 230.613 46.8907 230.685C46.8907 229.933 46.8406 229.82 46.7674 229.715C43.0412 224.18 41.4305 217.107 39.8738 210.264C37.2805 198.887 34.8298 188.129 22.6956 188.129C22.4952 188.129 22.3103 188.129 22.0906 188.129C21.1312 188.155 20.3027 188.182 18.0485 206.858C16.8 217.235 15.4629 230.546 14.3878 241.258C13.332 251.786 12.4188 260.863 12.0527 262.479V262.547C12.0219 262.769 12.0527 263.325 12.885 263.634C14.6075 264.265 21.5974 264.483 27.6394 264.483H29.1384C43.099 264.397 43.6732 263.562 43.9198 263.205C43.9968 263.089 44.0701 262.983 44.5633 257.941C46.0314 258.046 47.9581 258.163 50.5051 258.291C50.4627 259.528 50.4396 260.731 50.4396 261.893V262.645H282.125H282.965H297.222L297.273 262.419L349.797 261.6L483.25 262.66ZM45.5613 246.631C46.1162 240.536 46.4476 236.678 46.6325 234.223C46.987 233.351 47.2413 232.685 47.4032 232.181C48.9175 232.008 50.4473 231.839 51.9694 231.681C51.8191 236.37 51.4916 241.153 51.1679 245.823C50.9059 249.639 50.6554 253.309 50.5167 256.727C48.3241 256.61 46.3088 256.494 44.6673 256.384C44.8908 254.072 45.176 250.902 45.5613 246.631ZM53.5839 229.967C53.5839 229.166 53.6148 228.369 53.6186 227.572C75.0932 227.504 103.134 224.688 133.664 220.736L135.733 220.469C156.495 217.758 178.355 214.539 200.049 211.321L202.423 210.967L205.891 210.449C211.74 209.579 217.52 208.723 223.231 207.88L224.888 207.636C237.342 205.801 249.379 204.064 260.724 202.53C260.916 202.741 261.109 202.944 261.282 203.124L262.111 202.346C270.415 201.218 278.341 200.225 285.774 199.379L284.16 227.162C280.541 227.647 261.649 229.106 240.232 230.643L237.642 230.828C216.414 232.332 193.256 233.903 180.309 234.648L177.9 234.783C174.255 234.983 171.704 235.095 170.633 235.095C156.984 235.095 141.058 235.795 124.882 236.652L122.921 236.757C118.297 237.005 113.634 237.265 109.018 237.509C97.0033 238.179 84.742 238.863 73.2167 239.322L72.446 239.352L71.6561 239.382C65.167 239.634 58.9401 239.803 53.1215 239.859C53.2949 237.069 53.4414 234.272 53.5261 231.505C53.5261 231.245 53.5261 230.989 53.5261 230.753L53.5839 229.967ZM427.319 189.863C428.552 188.05 429.777 186.516 430.964 185.027C431.627 184.2 432.263 183.403 432.844 182.621C433.451 184.132 434.191 185.589 435.056 186.975L435.11 186.941C433.037 189.028 431.711 192.784 430.536 197.375C428.538 196.906 426.525 196.496 424.498 196.145C424.515 195.072 424.77 194.015 425.246 193.047C425.916 191.972 426.621 190.904 427.33 189.863H427.319ZM541.709 250.831C541.726 251.606 541.574 252.375 541.263 253.088C540.953 253.802 540.49 254.442 539.905 254.967C532.969 261.641 508.219 261.054 493.419 260.705C490.336 260.629 487.693 260.569 485.543 260.569C484.841 260.569 484.198 260.569 483.616 260.569H483.173C483.327 259.306 483.631 256.828 484.02 253.749C484.687 248.458 485.597 241.393 486.402 235.674C486.93 231.937 487.415 228.775 487.758 227.064H487.893L488.664 227.117L489.458 227.169C492.105 227.342 494.987 227.545 495.623 227.624C495.812 227.751 496.026 227.84 496.251 227.885C496.476 227.929 496.708 227.929 496.933 227.884C498.598 231.644 500.243 235.614 500.428 236.581L501.969 236.302C501.746 235.118 499.349 229.38 497.311 224.887C497.11 224.323 496.825 223.639 496.444 222.808C495.53 220.826 494.085 218.081 492.151 214.648C489.172 209.358 485.465 203.218 482.579 198.48C483.834 198.319 485.076 198.076 486.298 197.755C492.163 196.303 502.563 192.615 504.582 188.155C505.058 188.744 505.503 189.357 505.915 189.99C506.3 190.562 506.562 190.968 506.99 191.118C508.532 193.122 510.027 195.108 511.514 197.059C527.613 218.172 541.52 236.374 541.72 250.831H541.709ZM253.271 236.193C230.313 237.483 192.389 239.276 174.579 239.953L172.074 240.047C168.791 240.168 166.456 240.231 165.4 240.231C151.289 240.231 136.034 241.134 121.256 242.014L120.794 242.04L119.252 242.13C103.697 243.055 87.7168 243.973 73.286 243.796H72.4961H71.7062H71.394C65.614 243.687 62.0035 244.228 58.1578 244.804C56.4816 245.052 54.7553 245.311 52.7632 245.533C52.8557 244.176 52.952 242.807 53.0406 241.435C58.8823 241.382 65.1593 241.209 71.6869 240.961L72.4576 240.931L73.2475 240.897C84.8075 240.438 97.0842 239.769 109.122 239.085C113.361 238.848 117.599 238.611 121.838 238.382L123.803 238.276C140.373 237.393 156.695 236.659 170.637 236.659C171.276 236.659 173.241 236.565 176.22 236.4L178.655 236.261C191.452 235.509 216.996 233.839 239.873 232.23L243.133 232.001C262.612 230.617 279.551 229.324 284.056 228.752L283.732 234.362C282.125 234.505 279.944 234.528 278.279 234.543C275.69 234.569 273.243 234.591 271.995 234.919C271.374 235.08 267.409 235.374 261.344 235.746C258.99 235.866 256.265 236.024 253.283 236.193H253.271ZM363.392 214.498C363.943 214.498 364.482 214.498 365.026 214.528C367.203 214.588 369.311 214.731 371.295 214.904C375.515 215.306 378.589 215.021 380.863 214.152C381.226 214.018 381.58 213.861 381.923 213.682C382.223 213.531 382.513 213.363 382.793 213.178C386.716 210.546 387.306 205.373 388.057 198.804C388.177 197.751 388.3 196.661 388.442 195.536C388.473 195.281 388.508 195.021 388.543 194.762C388.577 194.502 388.616 194.25 388.654 193.991C388.893 192.325 389.194 190.607 389.595 188.844C390.052 186.824 390.654 184.837 391.394 182.899C392.264 180.64 393.367 178.473 394.685 176.432C394.773 176.293 394.862 176.154 394.958 176.014L395.113 176.116L396.269 176.868L396.099 177.127C394.767 179.159 393.66 181.323 392.797 183.583C391.556 186.949 390.698 190.438 390.238 193.987C390.2 194.243 390.161 194.502 390.126 194.739L390.022 195.51C389.872 196.683 389.741 197.837 389.61 198.965C388.905 205.143 388.284 210.565 384.67 213.712C384.443 213.911 384.204 214.088 383.953 214.28C383.703 214.472 383.387 214.656 383.082 214.833C380.47 216.314 376.694 216.942 371.137 216.412C369.114 216.22 366.96 216.077 364.741 216.036C364.205 216.036 363.665 216.013 363.122 216.01C353.392 215.949 342.634 217.649 335.729 224.045C328.454 230.783 327.891 239.145 331.552 243.337C335.212 247.53 343.497 248.601 356.044 239.288C359.052 237.013 362.464 235.297 366.108 234.227C366.629 234.076 367.145 233.945 367.65 233.824C376.809 231.693 386.08 233.96 395.136 236.182C398.796 237.084 402.395 237.968 405.925 238.536C406.811 238.679 407.694 238.803 408.568 238.912C415.285 239.664 421.67 238.983 427.581 234.682C438.108 227.019 436.413 219.642 433.65 212.46C433.526 212.133 433.395 211.806 433.264 211.475L432.879 210.482L432.787 210.253C431.931 208.237 431.196 206.175 430.586 204.075C430.174 202.618 429.973 201.112 429.989 199.601C429.989 199.345 430.012 199.093 430.035 198.849C430.058 198.605 430.093 198.319 430.135 198.056C430.17 197.868 430.201 197.68 430.243 197.484L430.494 197.54L431.785 197.815C431.742 198.018 431.708 198.221 431.677 198.424C431.634 198.691 431.604 198.958 431.588 199.225C431.588 199.417 431.588 199.601 431.588 199.8C431.557 202.913 432.883 206.226 434.286 209.697C434.501 210.227 434.713 210.761 434.925 211.298C435.052 211.622 435.179 211.945 435.31 212.268C435.441 212.592 435.546 212.904 435.661 213.223C438.224 220.319 439.337 228.09 428.571 235.926C421.543 241.044 414.032 241.386 406.156 240.153C405.266 240.013 404.376 239.855 403.459 239.683C400.611 239.126 397.721 238.419 394.789 237.697C386.08 235.562 377.168 233.377 368.436 235.276C367.912 235.392 367.384 235.524 366.856 235.671C363.29 236.667 359.951 238.319 357.018 240.536C349.759 245.935 343.748 247.985 339.112 247.985C335.182 247.985 332.242 246.514 330.365 244.36C326.284 239.686 326.404 230.591 334.654 222.928C341.983 216.164 353.285 214.404 363.403 214.498H363.392ZM470.083 179.045C470.114 179.271 470.152 179.492 470.199 179.711C463.814 187.719 456.011 197.251 449.468 204.072C443.917 201.367 438.086 199.248 432.074 197.751C433.23 193.329 434.505 189.629 436.405 187.855C436.763 187.791 437.734 187.682 438.755 187.565C445.472 186.809 462.623 184.865 470.095 179.045H470.083ZM478.337 194.521C478.591 194.965 478.926 195.514 479.354 196.191L479.77 196.875C479.986 197.251 480.213 197.601 480.441 197.973C480.474 198.055 480.521 198.131 480.579 198.198C483.508 203.011 487.238 209.166 490.378 214.697C491.662 216.953 492.66 218.788 493.442 220.285L493.346 220.36C493.627 220.71 494.694 222.928 495.916 225.624C495.993 225.846 496.047 226.026 496.085 226.173C495.658 226.083 494.374 225.966 489.72 225.661C489.72 225.62 489.72 225.583 489.72 225.552L489.793 224.973L489.246 224.744C489.038 224.658 468.226 215.934 461.787 211.392C458.334 208.951 454.706 206.753 450.932 204.816C457.201 198.262 464.469 189.4 470.746 181.557C471.439 183.346 472.522 184.967 473.632 186.625C474.588 187.987 475.445 189.413 476.194 190.893C476.399 191.28 477.092 192.453 478.348 194.521H478.337ZM501.025 164.295C498.54 169.31 496.178 174.071 499.264 180.282L499.083 180.323C499.114 180.447 499.854 181.587 500.759 182.888C500.467 183.087 500.147 183.331 499.777 183.613C497.041 185.693 490.64 190.554 478.657 191.987C478.117 191.085 477.747 190.457 477.639 190.227C476.858 188.679 475.964 187.188 474.965 185.764C473.697 183.865 472.507 182.083 471.944 180.053C471.854 179.728 471.782 179.4 471.728 179.068C471.665 178.694 471.627 178.318 471.613 177.94C471.613 177.721 471.613 177.5 471.613 177.274C471.613 177.003 471.644 176.725 471.678 176.439C471.713 176.154 471.755 175.898 471.809 175.62C472.191 173.928 472.841 172.306 473.736 170.811C474.121 170.134 475.404 169.141 476.984 168.028L477.636 167.573L478.275 167.133L479.023 166.622C480.059 165.915 481.169 165.156 482.286 164.366C482.818 163.982 483.349 163.59 483.878 163.189L484.009 163.091L484.598 162.633C484.807 162.471 485.011 162.305 485.211 162.144L485.535 161.877L485.812 161.644C488.124 159.689 490.163 157.53 491.238 155.214C491.792 154.078 492.072 152.833 492.059 151.574C491.966 147.867 493.215 145.619 494.371 145.096C494.591 144.997 494.835 144.96 495.076 144.99C495.316 145.02 495.543 145.115 495.731 145.265C495.736 145.43 495.785 145.59 495.872 145.73C495.96 145.871 496.084 145.986 496.232 146.066C496.266 146.513 496.289 146.867 496.286 146.987C496.259 148.04 496.185 149.04 496.066 149.995C495.95 150.948 495.778 151.893 495.55 152.827C494.996 155.052 494.065 157.172 492.795 159.098L494.124 159.929C495.958 157.147 497.133 154.002 497.565 150.721C497.677 149.969 497.754 149.157 497.808 148.333C497.835 147.905 497.854 147.469 497.866 147.021C497.866 146.645 497.761 145.31 497.611 143.596C497.611 143.468 497.588 143.34 497.577 143.22C497.896 142.599 498.44 142.362 499.006 142.118C499.187 142.039 499.368 141.956 499.542 141.862C499.75 142.317 499.927 142.69 499.973 142.84V142.866C500.224 143.618 500.436 144.333 500.621 145.04C500.806 145.746 500.944 146.382 501.06 147.036C501.06 147.096 501.06 147.16 501.087 147.22C501.209 147.931 501.293 148.648 501.341 149.367C501.473 151.387 501.298 153.414 500.821 155.383L502.362 155.733C503.18 152.316 503.167 148.759 502.324 145.348C502.17 144.684 501.987 144.006 501.777 143.314C501.692 143.043 501.603 142.769 501.511 142.494C501.511 142.456 501.488 142.419 501.472 142.381C501.391 142.137 501.087 141.468 500.663 140.561V140.52L500.69 140.479C500.916 140.09 501.22 139.75 501.584 139.479C501.711 139.379 501.868 139.324 502.031 139.321C502.312 139.321 502.752 139.697 503.133 140.716C503.407 141.441 503.645 142.148 503.857 142.836C506.836 152.552 503.761 158.767 501.025 164.295ZM440.724 150.672C440.902 150.431 441.079 150.191 441.264 149.95C441.526 149.608 441.792 149.266 442.073 148.924C445.228 145.078 448.872 141.64 452.916 138.693C453.198 138.486 453.464 138.317 453.687 138.129C453.911 137.941 454.246 137.753 454.458 137.599C454.67 137.444 454.893 137.324 455.055 137.223C455.643 136.877 456.228 136.556 456.808 136.26C457.501 137.488 458.415 138.585 459.506 139.497C459.297 140.005 459.12 140.482 458.993 140.937C458.893 141.28 458.812 141.603 458.746 141.915C458.681 142.324 458.645 142.738 458.639 143.152C458.505 144.433 458.838 145.719 459.579 146.784C459.802 147.088 460.061 147.366 460.349 147.611C460.578 147.812 460.823 147.995 461.082 148.157C461.213 148.236 461.34 148.311 461.467 148.378C462.238 151.871 466.183 153.297 468.33 154.075C468.673 154.199 469.077 154.346 469.305 154.451C469.74 157.493 470.557 158.888 471.57 159.677C471.814 159.534 472.071 159.399 472.341 159.271C472.615 159.132 472.9 159 473.189 158.895H473.227C475.074 158.13 477.098 157.865 479.086 158.13C481.075 158.395 482.952 159.179 484.521 160.399L484.733 160.568L484.271 160.944L484.125 161.065C483.916 161.234 483.704 161.399 483.493 161.565C481.834 160.268 479.768 159.568 477.643 159.583C476.797 159.585 475.954 159.691 475.135 159.899C474.819 159.979 474.508 160.074 474.202 160.185C474.067 160.234 473.929 160.283 473.794 160.339C473.659 160.395 473.432 160.501 473.25 160.587C471.191 161.54 469.541 163.171 468.592 165.193C468.095 166.225 467.824 167.347 467.796 168.487C467.767 169.627 467.982 170.76 468.426 171.815C468.883 172.884 469.572 173.845 470.445 174.631C470.364 174.924 470.299 175.21 470.245 175.492C470.191 175.774 470.141 176.078 470.106 176.36C470.071 176.642 470.056 176.845 470.041 177.082C463.648 183.2 445.472 185.264 438.601 186.035C437.191 186.193 436.482 186.275 436.089 186.351L436.416 186.148C435.431 184.529 434.617 182.817 433.985 181.038C435.862 178.158 436.829 175.247 435.661 171.262C433.823 164.994 435.364 158.32 440.227 151.39C440.378 151.157 440.551 150.92 440.724 150.672ZM215.193 195.149C216.449 195.713 219.547 201.079 222.476 206.429L205.687 208.918L203.968 209.17C208.523 203.842 212.465 198.932 215.193 195.149ZM216.757 194.442C216.807 193.66 215.778 192.513 212.457 189.088C210.95 187.531 208.669 185.174 208.48 184.625L206.939 184.884C207.081 185.7 208.318 187.046 211.324 190.148C212.376 191.231 213.809 192.709 214.607 193.668C214.353 193.769 214.136 193.942 213.983 194.164C210.862 198.507 206.469 203.917 201.629 209.531C191.996 210.96 182.308 212.392 172.702 213.784C174.54 211.904 179.757 205.395 196.481 182.952L197.876 181.072C198.932 179.669 199.895 178.274 200.824 176.936C205.405 170.295 209.024 165.054 218.634 165.054C225.624 165.054 236.251 179.996 244.012 190.908C247.268 195.484 250.135 199.518 252.42 202.109C243.334 203.376 233.866 204.741 224.148 206.181C220.595 199.706 218.391 195.995 216.757 194.442ZM254.285 201.861C251.973 199.428 248.89 195.066 245.295 190.039C236.891 178.225 226.414 163.524 218.618 163.524C208.168 163.524 204.149 169.344 199.498 176.086C198.577 177.421 197.622 178.804 196.589 180.184C196.327 180.53 195.845 181.177 195.186 182.064C176.767 206.767 171.947 212.592 171.145 213.126C171.176 213.105 171.21 213.09 171.245 213.081L171.554 213.953L165.485 214.825C167.026 213.404 171.777 207.576 189.595 183.677C190.246 182.805 190.72 182.173 190.978 181.824L192.08 180.35C198.111 172.251 207.185 160.072 217.929 160.072H218.399C229.978 160.448 243.777 179.586 252.905 192.243C255.429 195.743 257.699 198.883 259.552 201.135C257.811 201.376 256.057 201.613 254.285 201.861ZM52.0387 258.366C52.0387 258.107 52.0387 257.855 52.0619 257.591C52.085 257.328 52.085 257.076 52.0927 256.839C52.2198 253.764 52.4356 250.493 52.6668 247.093C54.8131 246.86 56.6435 246.59 58.4122 246.323C62.3503 245.736 65.7528 245.225 71.3786 245.334H71.7293C71.9913 245.334 72.2572 245.334 72.5192 245.334H73.2899C87.3815 245.507 102.91 244.642 118.089 243.743L120.112 243.623L120.882 243.574C135.779 242.687 151.181 241.769 165.392 241.769C165.997 241.769 167.554 241.724 169.858 241.645L172.61 241.544C191.202 240.833 239.488 238.641 261.425 237.276C266.723 236.945 270.484 236.663 271.918 236.464C272.089 236.445 272.259 236.414 272.426 236.374C273.478 236.099 275.941 236.077 278.318 236.054C280.491 236.054 282.272 236.001 283.663 235.885L283.616 236.708L283.528 238.239L282.194 261.107H51.9771C51.9848 260.22 52.0079 259.302 52.0387 258.366ZM501.815 179.361C502.318 179.927 502.762 180.54 503.141 181.192C503.387 181.568 503.669 182 503.996 182.489C504.112 182.662 504.42 183.053 505.056 183.85C505.996 185.027 508.046 187.61 508.651 188.614L508.165 189.032C508 189.174 507.834 189.317 507.688 189.438C506.722 188.164 505.755 186.881 504.786 185.587C504.401 184.426 503.457 183.425 502.624 182.643C502.598 182.619 502.57 182.596 502.54 182.576L502.432 182.429C501.851 181.651 501.328 180.833 500.867 179.981C501.161 179.744 501.479 179.536 501.815 179.361ZM493.145 121.634C498.86 123.051 502.848 126.619 504.085 131.41C504.683 133.837 504.603 136.377 503.854 138.764C503.66 138.482 503.403 138.246 503.103 138.074C502.803 137.902 502.467 137.799 502.12 137.771C502.008 137.762 501.896 137.762 501.784 137.771C501.869 136.58 501.723 135.463 500.671 134.478C498.679 132.598 497.75 130.496 496.929 128.623C495.561 125.506 494.27 122.562 488.691 122.562H488.375C487.585 122.562 486.421 122.938 485.292 123.314C484.661 123.531 484.018 123.713 483.365 123.859C482.676 122.96 481.802 122.211 480.799 121.66C485.18 120.731 489.346 120.69 493.145 121.634ZM433.642 169.626C433.765 170.322 433.928 171.011 434.128 171.69C434.529 172.9 434.668 174.178 434.535 175.443C434.403 176.708 434.001 177.932 433.357 179.037C432.575 176.112 432.301 172.694 433.642 169.626ZM407.004 162.813C402.218 166.979 398.083 170.574 396.342 173.883L395.652 175.195L374.594 165.065C369.507 161.775 358.252 154.071 355.046 151.646C358.544 150.68 371.06 148.679 382.824 147.243C384.867 146.995 393.101 145.483 400.866 143.772C405.944 142.644 409.343 141.783 411.655 141.088C411.874 141.088 412.102 141.088 412.337 141.088C414.106 141.088 416.283 140.734 418.502 140.37C420.337 140.028 422.191 139.798 424.055 139.682C423.851 148.138 414.907 155.936 407.004 162.813ZM415.362 115.655L415.982 114.584C416.314 114.016 416.683 113.384 417.1 112.658C420.934 105.984 423.226 105.187 429.727 104.127L430.833 103.95L431.311 103.871L431.596 103.83L431.939 103.781C432.588 103.687 433.244 103.638 433.9 103.634C436.32 103.634 437.63 104.386 437.811 105.071C438.073 106.071 436.339 107.842 431.92 109.365C431.745 109.422 431.58 109.505 431.43 109.609C430.243 109.673 428.895 109.767 427.577 109.887C427.234 109.917 426.891 109.951 426.556 109.989C426.22 110.026 425.87 110.064 425.538 110.102C424.551 110.213 423.569 110.374 422.598 110.583C422.475 110.607 422.357 110.656 422.254 110.726C422.15 110.797 422.063 110.888 421.997 110.993C422.091 110.841 422.242 110.731 422.417 110.684L422.568 112.219C422.756 112.209 422.94 112.152 423.099 112.053C423.485 111.97 423.908 111.891 424.398 111.816C424.722 111.767 425.065 111.718 425.427 111.673C425.789 111.628 426.101 111.591 426.456 111.549C428.991 111.264 431.54 111.104 434.093 111.072C435.634 111.143 436.02 111.38 436.089 111.542C436.309 112.023 435.742 114.49 433.392 115.524C432.794 115.787 432.316 115.99 431.927 116.155C431.357 116.227 430.386 116.324 429.384 116.426L428.428 116.52C426.205 116.742 424.255 116.941 422.818 117.122L422.46 117.167L421.797 117.261C421.369 117.325 421.026 117.389 420.764 117.449L420.579 117.494C420.438 117.53 420.295 117.559 420.151 117.58C419.179 117.743 418.226 118.002 417.308 118.355L417.897 119.784C418.46 119.564 419.04 119.39 419.631 119.261C419.94 119.19 420.217 119.141 420.444 119.099L420.672 119.054C420.79 119.034 420.907 119.008 421.022 118.975C421.26 118.914 421.5 118.867 421.743 118.832C423.238 118.588 426.267 118.287 428.59 118.054L429.234 117.99L430.028 117.911C430.103 118.049 430.211 118.166 430.344 118.253L430.367 118.272C430.362 118.638 430.261 118.997 430.074 119.314C429.977 119.524 429.854 119.765 429.688 120.066C429.353 120.599 428.885 121.041 428.328 121.352C428.155 121.459 427.976 121.559 427.793 121.649C427.372 121.859 426.936 122.041 426.49 122.194C426.078 122.34 425.669 122.468 425.284 122.57C423.25 122.525 420.514 123.596 418.244 124.514L417.99 124.615L417.03 124.991C416.595 125.164 416.186 125.315 415.874 125.412C415.729 125.463 415.58 125.499 415.427 125.521H415.246L414.961 125.683L415.346 126.319L415.524 126.627L415.558 127.048C415.643 127.048 415.736 127.025 415.836 127.007C416.218 126.924 416.593 126.81 416.957 126.668C417.408 126.503 417.947 126.292 418.606 126.021C419.828 125.529 421.304 124.927 422.687 124.517C422.797 124.678 422.949 124.808 423.126 124.893C423.932 125.303 423.897 125.668 423.897 125.822C423.666 127.954 416.78 131.786 415.331 132.177C413.983 132.555 412.747 133.244 411.728 134.184C411.043 134.778 410.525 135.533 410.221 136.377C410.149 136.62 410.12 136.875 410.137 137.129C410.142 137.218 410.155 137.308 410.175 137.395C410.024 137.815 409.957 138.26 409.979 138.704C409.817 138.596 409.662 138.478 409.516 138.351C409.307 138.159 409.119 137.946 408.958 137.715C408.776 137.467 408.625 137.2 408.507 136.918C407.239 133.801 409.57 128.755 410.965 125.739C411.397 124.811 411.736 124.078 411.917 123.532C412.984 120.344 413.597 118.87 414.495 117.193C414.734 116.723 415.019 116.219 415.346 115.655H415.362ZM451.074 110.94C452.277 113.264 447.371 116.7 443.599 119.073C445.526 116.065 447.56 112.997 449.267 110.395C450.134 110.308 450.801 110.44 451.059 110.94H451.074ZM332.978 175.838C329.086 172.006 326.015 168.979 325.178 168.224C321.032 164.464 315.106 155.21 314.913 146.329C314.809 141.441 316.454 137.305 319.78 134.023C328.026 125.92 332.662 125.375 341.898 124.326C344.353 124.044 347.139 123.724 350.375 123.198C360.093 121.671 392.23 118.02 412.668 117.253C411.769 119.132 411.008 121.071 410.391 123.055C410.237 123.517 409.894 124.254 409.501 125.104C408.006 128.345 405.501 133.752 407.015 137.489C407.336 138.277 407.843 138.979 408.495 139.539C408.617 139.793 408.789 140.021 409 140.212C400.723 142.415 386.188 145.261 382.608 145.698C376.316 146.45 369.21 147.476 363.6 148.401C361.249 148.777 359.435 149.112 358.017 149.39C356.178 149.589 349.058 150.732 345.239 152.996L346.06 154.312C347.878 153.236 350.533 152.432 352.934 151.864C353.034 152.033 353.454 152.616 364.598 160.241C368.239 162.738 370.763 164.437 372.54 165.595L352.055 193.844L352.217 194.175H351.79C346.168 188.836 338.168 180.951 332.978 175.838ZM192.716 146.679C203.583 135.831 216.884 129.357 228.317 129.357H228.356C235.897 129.357 242.405 132.068 247.696 137.38C262.072 151.819 268.97 162.918 276.272 174.668C279.355 179.654 282.526 184.73 286.341 190.272L285.901 197.815C278.195 198.687 270.006 199.729 261.39 200.891C259.487 198.68 257.005 195.251 254.204 191.359C244.335 177.68 230.822 158.948 218.456 158.534C206.673 158.158 197.121 170.942 190.805 179.44L189.707 180.91C189.449 181.252 188.971 181.891 188.323 182.764C169.893 207.486 165.069 213.31 164.267 213.844C164.299 213.826 164.333 213.811 164.367 213.799L164.753 214.927C155.327 216.269 146.002 217.559 136.885 218.762C151.79 196.623 172.771 166.596 192.712 146.679H192.716Z" fill="black"/>
</svg>
