<svg width="559" height="245" viewBox="0 0 559 245" fill="none" xmlns="http://www.w3.org/2000/svg">
<path d="M482.583 233.885L482.672 233.381C494.787 232.776 542.715 237.517 542.51 222.823C542.287 206.685 525.328 185.998 507.48 162.46C507.83 162.427 508.327 161.893 509.56 160.87C509.946 160.535 505.064 154.673 504.655 154.068C501.869 149.894 502.382 149.932 499.865 151.744C493.781 139.156 511.499 133.087 503.985 112.757C509.329 99.7511 497.434 88.2944 478.51 93.4719C476.198 92.6711 473.697 92.6936 472.476 94.5285C471.705 95.7054 469.586 93.7464 465.374 95.0398C462.423 95.946 463.251 97.811 461.44 99.4391C460.881 99.9429 457.024 102.007 456.893 105.316C455.248 106.658 453.583 108.11 451.884 109.689C451.292 109.592 450.692 109.543 450.092 109.542C444.424 109.542 439.831 113.731 439.831 118.901C439.831 119.903 440.007 120.897 440.351 121.841C440.031 122.27 439.719 122.702 439.414 123.146L424.81 110.93C425.361 125.18 401.629 137.46 397.008 146.236C396.654 146.917 396.303 147.575 395.96 148.221L374.108 137.693C368.024 133.772 353.89 123.966 353.597 123.473C353.591 123.458 353.591 123.442 353.597 123.428L358.159 122.149C363.985 121.021 374.308 119.487 382.701 118.461C385.807 118.085 403.509 114.731 411.512 112.294C414.98 112.569 421.223 110.768 424.818 110.915C429.269 111.103 433.577 107.275 435.176 103.53C435.946 101.755 438.285 97.8899 441.06 93.5208C445.183 90.9565 453.645 86.2377 451.753 82.5754C451.279 81.6655 450.157 81.4738 448.766 81.6731C450.612 78.8681 452.127 76.5632 452.882 75.3487C457.14 68.4943 457.005 67.4527 452.389 67.543C448.774 67.6031 441.098 67.7987 439.287 68.0694C436.84 68.4454 436.467 68.765 432.737 73.4161C432.32 73.935 431.897 74.4789 431.465 75.0479H431.434C423.442 76.3151 420.745 76.6572 416.375 84.2637C415.316 86.1061 414.576 87.3394 413.967 88.4448C393.263 89.0878 359.535 92.9568 350.233 94.4345C334.82 96.8522 329.876 94.9722 319.202 105.459C307.642 116.822 318.505 135.246 324.624 140.769C326.666 142.615 342.318 158.287 351.439 166.905C346.372 166.754 341.174 166.491 335.825 166.044C305.438 163.502 287.169 161.223 287.169 161.223L287.123 162.032C273.833 142.766 268.692 129.361 248.247 108.843C232.698 93.2313 208.607 101.699 192.138 118.141C171.716 138.536 150.272 169.413 135.279 191.739C103.82 195.838 74.6579 198.805 52.8172 198.805C52.8172 200.128 52.7941 201.474 52.7594 202.824C49.2721 203.2 46.7289 203.478 46.7289 203.478C46.5179 204.363 46.2198 205.225 45.8388 206.054C46.0199 203.734 46.1085 202.226 46.0507 202.14C35.851 186.968 41.2032 160.362 22.0792 160.911C19.5591 160.983 13.9178 229.67 12.7888 234.656C12.5961 236.13 42.3862 235.987 43.2301 234.784C43.2571 234.746 43.4883 232.457 43.812 229.106C45.7926 229.257 48.436 229.407 51.2913 229.554C51.2335 231.058 51.2026 232.498 51.2026 233.885H296.594L296.641 233.671L349.817 232.84L482.583 233.885ZM495.927 198.917C495.8 198.842 491.334 198.541 488.818 198.38C488.891 197.921 488.941 197.601 488.961 197.455C488.961 197.455 467.933 188.664 461.348 184.016C457.641 181.393 453.733 179.054 449.657 177.019C456.361 170.101 464.403 160.261 471.073 151.884C471.994 155.719 475.042 158.633 476.919 162.554C477.104 162.93 477.898 164.265 479.057 166.179C479.346 166.683 479.705 167.262 480.048 167.803C485.107 176.102 494.629 191.664 496.617 197.18C495.392 194.492 494.305 192.292 493.989 191.879L496.975 198.714C496.952 199.237 496.636 199.346 495.927 198.917V198.917ZM202.303 181.9L214.11 180.452L202.007 182.249L202.303 181.9Z" fill="white"/>
<path d="M483.25 234.66L483.342 234.126C485.743 234.047 489.326 234.126 493.392 234.231C497.318 234.321 501.738 234.427 506.285 234.427C520.276 234.427 535.447 233.434 541.027 228.035C541.76 227.366 542.341 226.555 542.732 225.653C543.124 224.752 543.317 223.78 543.3 222.801C543.096 207.84 529.043 189.453 512.813 168.161C511.433 166.356 510.034 164.517 508.632 162.667C508.805 162.528 508.994 162.366 509.214 162.175C509.433 161.983 509.734 161.727 510.073 161.445C510.79 160.847 510.215 159.998 508.948 158.291C508.127 157.163 507.075 155.858 506.304 154.907C505.842 154.324 505.403 153.779 505.318 153.647C504.994 153.162 504.717 152.737 504.474 152.361C503.372 150.677 502.933 149.977 502.093 149.831C501.453 149.718 500.937 150.015 500.193 150.545C498.185 145.57 500.116 141.664 502.443 136.964C505.464 130.873 508.874 123.977 504.828 112.772C506.127 109.486 506.424 106.173 505.618 103.045C504.231 97.6755 499.838 93.7012 493.534 92.1408C488.91 91.0128 483.839 91.2046 478.506 92.6559C477.68 92.3828 476.816 92.2295 475.944 92.201C474.094 92.1747 472.684 92.8289 471.813 94.1336C471.44 94.1599 471.066 94.1281 470.703 94.0396C468.86 93.6612 466.947 93.7532 465.151 94.3066C463.024 94.9608 462.5 96.1339 462.037 97.1679C461.802 97.8122 461.42 98.396 460.92 98.875C460.866 98.9239 460.677 99.0555 460.507 99.172C459.278 100.026 456.461 101.985 456.149 104.959C454.649 106.187 453.154 107.493 451.664 108.877C451.153 108.81 450.638 108.776 450.123 108.775C444.031 108.775 439.071 113.321 439.071 118.905C439.072 119.857 439.219 120.803 439.507 121.713C435.222 127.556 433.145 133.418 433.365 138.96C430.209 143.435 430.887 148.8 432.209 152.872C431.496 153.891 430.667 154.944 429.731 156.102C428.575 157.542 427.28 159.17 426.012 161.028L425.604 161.633L397.055 147.864L397.733 146.578C399.34 143.525 403.567 139.848 408.04 135.952C416.217 128.838 425.45 120.803 425.627 111.682C430.105 111.415 434.301 107.617 435.915 103.827C436.644 102.12 438.94 98.3373 441.649 94.0772L442.651 93.4644C447.379 90.5729 454.523 86.2 452.469 82.2332C452.256 81.8349 451.938 81.499 451.548 81.2599C451.158 81.0207 450.71 80.8869 450.25 80.8721C451.745 78.5898 452.92 76.7963 453.568 75.751C456.242 71.4496 457.301 69.2988 456.512 67.9527C455.907 66.9263 454.489 66.7383 452.388 66.7759C449.375 66.8248 441.133 67.0165 439.179 67.3136C436.386 67.7347 435.881 68.2611 432.131 72.9536C431.777 73.3972 431.411 73.8635 431.041 74.3485C423.161 75.5931 420.209 76.0631 415.705 83.8989C415.289 84.6246 414.934 85.2525 414.595 85.8165C414.179 86.5271 413.824 87.1363 413.508 87.6965C392.253 88.3921 358.255 92.404 350.125 93.6787C346.919 94.1825 344.152 94.5021 341.713 94.7804C332.415 95.852 327.294 96.4385 318.659 104.932C315.009 108.516 313.218 113.035 313.333 118.359C313.534 127.692 319.753 137.423 324.123 141.352C324.932 142.081 327.976 145.112 331.872 148.921C340.091 157.02 345.659 162.457 349.466 166.085C345.062 165.927 340.561 165.675 335.929 165.288C305.908 162.78 287.485 160.494 287.304 160.471L286.996 160.434C283.493 155.29 280.541 150.541 277.636 145.867C270.288 134.039 263.344 122.864 248.84 108.301C243.241 102.661 236.351 99.8225 228.371 99.8112H228.329C216.48 99.8112 202.754 106.459 191.599 117.6C171.222 137.949 149.809 168.736 134.835 191.029C103.465 195.116 74.6655 198.03 52.8556 198.03H52.085V198.801C52.085 199.899 52.0657 201.008 52.0426 202.125C49.4609 202.392 47.4995 202.613 46.8907 202.685C46.8907 201.933 46.8406 201.82 46.7674 201.715C43.0412 196.18 41.4305 189.107 39.8738 182.264C37.2805 170.887 34.8298 160.129 22.6956 160.129C22.4952 160.129 22.3103 160.129 22.0906 160.129C21.1312 160.155 20.3027 160.182 18.0485 178.858C16.8 189.235 15.4629 202.546 14.3878 213.258C13.332 223.786 12.4188 232.863 12.0527 234.479V234.547C12.0219 234.769 12.0527 235.325 12.885 235.634C14.6075 236.265 21.5974 236.483 27.6394 236.483H29.1384C43.099 236.397 43.6732 235.562 43.9198 235.205C43.9968 235.089 44.0701 234.983 44.5633 229.941C46.0314 230.046 47.9581 230.163 50.5051 230.291C50.4627 231.528 50.4396 232.731 50.4396 233.893V234.645H282.125H282.965H297.222L297.273 234.419L349.797 233.6L483.25 234.66ZM45.5613 218.631C46.1162 212.536 46.4476 208.678 46.6325 206.223C46.987 205.351 47.2413 204.685 47.4032 204.181C48.9175 204.008 50.4473 203.839 51.9694 203.681C51.8191 208.37 51.4916 213.153 51.1679 217.823C50.9059 221.639 50.6554 225.309 50.5167 228.727C48.3241 228.61 46.3088 228.494 44.6673 228.384C44.8908 226.072 45.176 222.902 45.5613 218.631ZM53.5839 201.967C53.5839 201.166 53.6148 200.369 53.6186 199.572C75.0932 199.504 103.134 196.688 133.664 192.736L135.733 192.469C156.495 189.758 178.355 186.539 200.049 183.321L202.423 182.967L205.891 182.449C211.74 181.579 217.52 180.723 223.231 179.88L224.888 179.636C237.342 177.801 249.379 176.064 260.724 174.53C260.916 174.741 261.109 174.944 261.282 175.124L262.111 174.346C270.415 173.218 278.341 172.225 285.774 171.379L284.16 199.162C280.541 199.647 261.649 201.106 240.232 202.643L237.642 202.828C216.414 204.332 193.256 205.903 180.309 206.648L177.9 206.783C174.255 206.983 171.704 207.095 170.633 207.095C156.984 207.095 141.058 207.795 124.882 208.652L122.921 208.757C118.297 209.005 113.634 209.265 109.018 209.509C97.0033 210.179 84.742 210.863 73.2167 211.322L72.446 211.352L71.6561 211.382C65.167 211.634 58.9401 211.803 53.1215 211.859C53.2949 209.069 53.4414 206.272 53.5261 203.505C53.5261 203.245 53.5261 202.989 53.5261 202.753L53.5839 201.967ZM427.319 161.863C428.552 160.05 429.777 158.516 430.964 157.027C431.627 156.2 432.263 155.403 432.844 154.621C433.451 156.132 434.191 157.589 435.056 158.975L435.11 158.941C433.037 161.028 431.711 164.784 430.536 169.375C428.538 168.906 426.525 168.496 424.498 168.145C424.515 167.072 424.77 166.015 425.246 165.047C425.916 163.972 426.621 162.904 427.33 161.863H427.319ZM541.709 222.831C541.726 223.606 541.574 224.375 541.263 225.088C540.953 225.802 540.49 226.442 539.905 226.967C532.969 233.641 508.219 233.054 493.419 232.705C490.336 232.629 487.693 232.569 485.543 232.569C484.841 232.569 484.198 232.569 483.616 232.569H483.173C483.327 231.306 483.631 228.828 484.02 225.749C484.687 220.458 485.597 213.393 486.402 207.674C486.93 203.937 487.415 200.775 487.758 199.064H487.893L488.664 199.117L489.458 199.169C492.105 199.342 494.987 199.545 495.623 199.624C495.812 199.751 496.026 199.84 496.251 199.885C496.476 199.929 496.708 199.929 496.933 199.884C498.598 203.644 500.243 207.614 500.428 208.581L501.969 208.302C501.746 207.118 499.349 201.38 497.311 196.887C497.11 196.323 496.825 195.639 496.444 194.808C495.53 192.826 494.085 190.081 492.151 186.648C489.172 181.358 485.465 175.218 482.579 170.48C483.834 170.319 485.076 170.076 486.298 169.755C492.163 168.303 502.563 164.615 504.582 160.155C505.058 160.744 505.503 161.357 505.915 161.99C506.3 162.562 506.562 162.968 506.99 163.118C508.532 165.122 510.027 167.108 511.514 169.059C527.613 190.172 541.52 208.374 541.72 222.831H541.709ZM253.271 208.193C230.313 209.483 192.389 211.276 174.579 211.953L172.074 212.047C168.791 212.168 166.456 212.231 165.4 212.231C151.289 212.231 136.034 213.134 121.256 214.014L120.794 214.04L119.252 214.13C103.697 215.055 87.7168 215.973 73.286 215.796H72.4961H71.7062H71.394C65.614 215.687 62.0035 216.228 58.1578 216.804C56.4816 217.052 54.7553 217.311 52.7632 217.533C52.8557 216.176 52.952 214.807 53.0406 213.435C58.8823 213.382 65.1593 213.209 71.6869 212.961L72.4576 212.931L73.2475 212.897C84.8075 212.438 97.0842 211.769 109.122 211.085C113.361 210.848 117.599 210.611 121.838 210.382L123.803 210.276C140.373 209.393 156.695 208.659 170.637 208.659C171.276 208.659 173.241 208.565 176.22 208.4L178.655 208.261C191.452 207.509 216.996 205.839 239.873 204.23L243.133 204.001C262.612 202.617 279.551 201.324 284.056 200.752L283.732 206.362C282.125 206.505 279.944 206.528 278.279 206.543C275.69 206.569 273.243 206.591 271.995 206.919C271.374 207.08 267.409 207.374 261.344 207.746C258.99 207.866 256.265 208.024 253.283 208.193H253.271ZM363.392 186.498C363.943 186.498 364.482 186.498 365.026 186.528C367.203 186.588 369.311 186.731 371.295 186.904C375.515 187.306 378.589 187.021 380.863 186.152C381.226 186.018 381.58 185.861 381.923 185.682C382.223 185.531 382.513 185.363 382.793 185.178C386.716 182.546 387.306 177.373 388.057 170.804C388.177 169.751 388.3 168.661 388.442 167.536C388.473 167.281 388.508 167.021 388.543 166.762C388.577 166.502 388.616 166.25 388.654 165.991C388.893 164.325 389.194 162.607 389.595 160.844C390.052 158.824 390.654 156.837 391.394 154.899C392.264 152.64 393.367 150.473 394.685 148.432C394.773 148.293 394.862 148.154 394.958 148.014L395.113 148.116L396.269 148.868L396.099 149.127C394.767 151.159 393.66 153.323 392.797 155.583C391.556 158.949 390.698 162.438 390.238 165.987C390.2 166.243 390.161 166.502 390.126 166.739L390.022 167.51C389.872 168.683 389.741 169.837 389.61 170.965C388.905 177.143 388.284 182.565 384.67 185.712C384.443 185.911 384.204 186.088 383.953 186.28C383.703 186.472 383.387 186.656 383.082 186.833C380.47 188.314 376.694 188.942 371.137 188.412C369.114 188.22 366.96 188.077 364.741 188.036C364.205 188.036 363.665 188.013 363.122 188.01C353.392 187.949 342.634 189.649 335.729 196.045C328.454 202.783 327.891 211.145 331.552 215.337C335.212 219.53 343.497 220.601 356.044 211.288C359.052 209.013 362.464 207.297 366.108 206.227C366.629 206.076 367.145 205.945 367.65 205.824C376.809 203.693 386.08 205.96 395.136 208.182C398.796 209.084 402.395 209.968 405.925 210.536C406.811 210.679 407.694 210.803 408.568 210.912C415.285 211.664 421.67 210.983 427.581 206.682C438.108 199.019 436.413 191.642 433.65 184.46C433.526 184.133 433.395 183.806 433.264 183.475L432.879 182.482L432.787 182.253C431.931 180.237 431.196 178.175 430.586 176.075C430.174 174.618 429.973 173.112 429.989 171.601C429.989 171.345 430.012 171.093 430.035 170.849C430.058 170.605 430.093 170.319 430.135 170.056C430.17 169.868 430.201 169.68 430.243 169.484L430.494 169.54L431.785 169.815C431.742 170.018 431.708 170.221 431.677 170.424C431.634 170.691 431.604 170.958 431.588 171.225C431.588 171.417 431.588 171.601 431.588 171.8C431.557 174.913 432.883 178.226 434.286 181.697C434.501 182.227 434.713 182.761 434.925 183.298C435.052 183.622 435.179 183.945 435.31 184.268C435.441 184.592 435.546 184.904 435.661 185.223C438.224 192.319 439.337 200.09 428.571 207.926C421.543 213.044 414.032 213.386 406.156 212.153C405.266 212.013 404.376 211.855 403.459 211.683C400.611 211.126 397.721 210.419 394.789 209.697C386.08 207.562 377.168 205.377 368.436 207.276C367.912 207.392 367.384 207.524 366.856 207.671C363.29 208.667 359.951 210.319 357.018 212.536C349.759 217.935 343.748 219.985 339.112 219.985C335.182 219.985 332.242 218.514 330.365 216.36C326.284 211.686 326.404 202.591 334.654 194.928C341.983 188.164 353.285 186.404 363.403 186.498H363.392ZM470.083 151.045C470.114 151.271 470.152 151.492 470.199 151.711C463.814 159.719 456.011 169.251 449.468 176.072C443.917 173.367 438.086 171.248 432.074 169.751C433.23 165.329 434.505 161.629 436.405 159.855C436.763 159.791 437.734 159.682 438.755 159.565C445.472 158.809 462.623 156.865 470.095 151.045H470.083ZM478.337 166.521C478.591 166.965 478.926 167.514 479.354 168.191L479.77 168.875C479.986 169.251 480.213 169.601 480.441 169.973C480.474 170.055 480.521 170.131 480.579 170.198C483.508 175.011 487.238 181.166 490.378 186.697C491.662 188.953 492.66 190.788 493.442 192.285L493.346 192.36C493.627 192.71 494.694 194.928 495.916 197.624C495.993 197.846 496.047 198.026 496.085 198.173C495.658 198.083 494.374 197.966 489.72 197.661C489.72 197.62 489.72 197.583 489.72 197.552L489.793 196.973L489.246 196.744C489.038 196.658 468.226 187.934 461.787 183.392C458.334 180.951 454.706 178.753 450.932 176.816C457.201 170.262 464.469 161.4 470.746 153.557C471.439 155.346 472.522 156.967 473.632 158.625C474.588 159.987 475.445 161.413 476.194 162.893C476.399 163.28 477.092 164.453 478.348 166.521H478.337ZM501.025 136.295C498.54 141.31 496.178 146.071 499.264 152.282L499.083 152.323C499.114 152.447 499.854 153.587 500.759 154.888C500.467 155.087 500.147 155.331 499.777 155.613C497.041 157.693 490.64 162.554 478.657 163.987C478.117 163.085 477.747 162.457 477.639 162.227C476.858 160.679 475.964 159.188 474.965 157.764C473.697 155.865 472.507 154.083 471.944 152.053C471.854 151.728 471.782 151.4 471.728 151.068C471.665 150.694 471.627 150.318 471.613 149.94C471.613 149.721 471.613 149.5 471.613 149.274C471.613 149.003 471.644 148.725 471.678 148.439C471.713 148.154 471.755 147.898 471.809 147.62C472.191 145.928 472.841 144.306 473.736 142.811C474.121 142.134 475.404 141.141 476.984 140.028L477.636 139.573L478.275 139.133L479.023 138.622C480.059 137.915 481.169 137.156 482.286 136.366C482.818 135.982 483.349 135.59 483.878 135.189L484.009 135.091L484.598 134.633C484.807 134.471 485.011 134.305 485.211 134.144L485.535 133.877L485.812 133.644C488.124 131.689 490.163 129.53 491.238 127.214C491.792 126.078 492.072 124.833 492.059 123.574C491.966 119.867 493.215 117.619 494.371 117.096C494.591 116.997 494.835 116.96 495.076 116.99C495.316 117.02 495.543 117.115 495.731 117.265C495.736 117.43 495.785 117.59 495.872 117.73C495.96 117.871 496.084 117.986 496.232 118.066C496.266 118.513 496.289 118.867 496.286 118.987C496.259 120.04 496.185 121.04 496.066 121.995C495.95 122.948 495.778 123.893 495.55 124.827C494.996 127.052 494.065 129.172 492.795 131.098L494.124 131.929C495.958 129.147 497.133 126.002 497.565 122.721C497.677 121.969 497.754 121.157 497.808 120.333C497.835 119.905 497.854 119.469 497.866 119.021C497.866 118.645 497.761 117.31 497.611 115.596C497.611 115.468 497.588 115.34 497.577 115.22C497.896 114.599 498.44 114.362 499.006 114.118C499.187 114.039 499.368 113.956 499.542 113.862C499.75 114.317 499.927 114.69 499.973 114.84V114.866C500.224 115.618 500.436 116.333 500.621 117.04C500.806 117.746 500.944 118.382 501.06 119.036C501.06 119.096 501.06 119.16 501.087 119.22C501.209 119.931 501.293 120.648 501.341 121.367C501.473 123.387 501.298 125.414 500.821 127.383L502.362 127.733C503.18 124.316 503.167 120.759 502.324 117.348C502.17 116.684 501.987 116.006 501.777 115.314C501.692 115.043 501.603 114.769 501.511 114.494C501.511 114.456 501.488 114.419 501.472 114.381C501.391 114.137 501.087 113.468 500.663 112.561V112.52L500.69 112.479C500.916 112.09 501.22 111.75 501.584 111.479C501.711 111.379 501.868 111.324 502.031 111.321C502.312 111.321 502.752 111.697 503.133 112.716C503.407 113.441 503.645 114.148 503.857 114.836C506.836 124.552 503.761 130.767 501.025 136.295ZM440.724 122.672C440.902 122.431 441.079 122.191 441.264 121.95C441.526 121.608 441.792 121.266 442.073 120.924C445.228 117.078 448.872 113.64 452.916 110.693C453.198 110.486 453.464 110.317 453.687 110.129C453.911 109.941 454.246 109.753 454.458 109.599C454.67 109.444 454.893 109.324 455.055 109.223C455.643 108.877 456.228 108.556 456.808 108.26C457.501 109.488 458.415 110.585 459.506 111.497C459.297 112.005 459.12 112.482 458.993 112.937C458.893 113.28 458.812 113.603 458.746 113.915C458.681 114.324 458.645 114.738 458.639 115.152C458.505 116.433 458.838 117.719 459.579 118.784C459.802 119.088 460.061 119.366 460.349 119.611C460.578 119.812 460.823 119.995 461.082 120.157C461.213 120.236 461.34 120.311 461.467 120.378C462.238 123.871 466.183 125.297 468.33 126.075C468.673 126.199 469.077 126.346 469.305 126.451C469.74 129.493 470.557 130.888 471.57 131.677C471.814 131.534 472.071 131.399 472.341 131.271C472.615 131.132 472.9 131 473.189 130.895H473.227C475.074 130.13 477.098 129.865 479.086 130.13C481.075 130.395 482.952 131.179 484.521 132.399L484.733 132.568L484.271 132.944L484.125 133.065C483.916 133.234 483.704 133.399 483.493 133.565C481.834 132.268 479.768 131.568 477.643 131.583C476.797 131.585 475.954 131.691 475.135 131.899C474.819 131.979 474.508 132.074 474.202 132.185C474.067 132.234 473.929 132.283 473.794 132.339C473.659 132.395 473.432 132.501 473.25 132.587C471.191 133.54 469.541 135.171 468.592 137.193C468.095 138.225 467.824 139.347 467.796 140.487C467.767 141.627 467.982 142.76 468.426 143.815C468.883 144.884 469.572 145.845 470.445 146.631C470.364 146.924 470.299 147.21 470.245 147.492C470.191 147.774 470.141 148.078 470.106 148.36C470.071 148.642 470.056 148.845 470.041 149.082C463.648 155.2 445.472 157.264 438.601 158.035C437.191 158.193 436.482 158.275 436.089 158.351L436.416 158.148C435.431 156.529 434.617 154.817 433.985 153.038C435.862 150.158 436.829 147.247 435.661 143.262C433.823 136.994 435.364 130.32 440.227 123.39C440.378 123.157 440.551 122.92 440.724 122.672ZM215.193 167.149C216.449 167.713 219.547 173.079 222.476 178.429L205.687 180.918L203.968 181.17C208.523 175.842 212.465 170.932 215.193 167.149ZM216.757 166.442C216.807 165.66 215.778 164.513 212.457 161.088C210.95 159.531 208.669 157.174 208.48 156.625L206.939 156.884C207.081 157.7 208.318 159.046 211.324 162.148C212.376 163.231 213.809 164.709 214.607 165.668C214.353 165.769 214.136 165.942 213.983 166.164C210.862 170.507 206.469 175.917 201.629 181.531C191.996 182.96 182.308 184.392 172.702 185.784C174.54 183.904 179.757 177.395 196.481 154.952L197.876 153.072C198.932 151.669 199.895 150.274 200.824 148.936C205.405 142.295 209.024 137.054 218.634 137.054C225.624 137.054 236.251 151.996 244.012 162.908C247.268 167.484 250.135 171.518 252.42 174.109C243.334 175.376 233.866 176.741 224.148 178.181C220.595 171.706 218.391 167.995 216.757 166.442ZM254.285 173.861C251.973 171.428 248.89 167.066 245.295 162.039C236.891 150.225 226.414 135.524 218.618 135.524C208.168 135.524 204.149 141.344 199.498 148.086C198.577 149.421 197.622 150.804 196.589 152.184C196.327 152.53 195.845 153.177 195.186 154.064C176.767 178.767 171.947 184.592 171.145 185.126C171.176 185.105 171.21 185.09 171.245 185.081L171.554 185.953L165.485 186.825C167.026 185.404 171.777 179.576 189.595 155.677C190.246 154.805 190.72 154.173 190.978 153.824L192.08 152.35C198.111 144.251 207.185 132.072 217.929 132.072H218.399C229.978 132.448 243.777 151.586 252.905 164.243C255.429 167.743 257.699 170.883 259.552 173.135C257.811 173.376 256.057 173.613 254.285 173.861ZM52.0387 230.366C52.0387 230.107 52.0387 229.855 52.0619 229.591C52.085 229.328 52.085 229.076 52.0927 228.839C52.2198 225.764 52.4356 222.493 52.6668 219.093C54.8131 218.86 56.6435 218.59 58.4122 218.323C62.3503 217.736 65.7528 217.225 71.3786 217.334H71.7293C71.9913 217.334 72.2572 217.334 72.5192 217.334H73.2899C87.3815 217.507 102.91 216.642 118.089 215.743L120.112 215.623L120.882 215.574C135.779 214.687 151.181 213.769 165.392 213.769C165.997 213.769 167.554 213.724 169.858 213.645L172.61 213.544C191.202 212.833 239.488 210.641 261.425 209.276C266.723 208.945 270.484 208.663 271.918 208.464C272.089 208.445 272.259 208.414 272.426 208.374C273.478 208.099 275.941 208.077 278.318 208.054C280.491 208.054 282.272 208.001 283.663 207.885L283.616 208.708L283.528 210.239L282.194 233.107H51.9771C51.9848 232.22 52.0079 231.302 52.0387 230.366ZM501.815 151.361C502.318 151.927 502.762 152.54 503.141 153.192C503.387 153.568 503.669 154 503.996 154.489C504.112 154.662 504.42 155.053 505.056 155.85C505.996 157.027 508.046 159.61 508.651 160.614L508.165 161.032C508 161.174 507.834 161.317 507.688 161.438C506.722 160.164 505.755 158.881 504.786 157.587C504.401 156.426 503.457 155.425 502.624 154.643C502.598 154.619 502.57 154.596 502.54 154.576L502.432 154.429C501.851 153.651 501.328 152.833 500.867 151.981C501.161 151.744 501.479 151.536 501.815 151.361ZM493.145 93.6336C498.86 95.0511 502.848 98.6193 504.085 103.41C504.683 105.837 504.603 108.377 503.854 110.764C503.66 110.482 503.403 110.246 503.103 110.074C502.803 109.902 502.467 109.799 502.12 109.771C502.008 109.762 501.896 109.762 501.784 109.771C501.869 108.58 501.723 107.463 500.671 106.478C498.679 104.598 497.75 102.496 496.929 100.623C495.561 97.5063 494.27 94.5623 488.691 94.5623H488.375C487.585 94.5623 486.421 94.9383 485.292 95.3143C484.661 95.5312 484.018 95.7133 483.365 95.8595C482.676 94.96 481.802 94.2108 480.799 93.6599C485.18 92.7312 489.346 92.6898 493.145 93.6336ZM433.642 141.626C433.765 142.322 433.928 143.011 434.128 143.69C434.529 144.9 434.668 146.178 434.535 147.443C434.403 148.708 434.001 149.932 433.357 151.037C432.575 148.112 432.301 144.694 433.642 141.626ZM407.004 134.813C402.218 138.979 398.083 142.574 396.342 145.883L395.652 147.195L374.594 137.065C369.507 133.775 358.252 126.071 355.046 123.646C358.544 122.68 371.06 120.679 382.824 119.243C384.867 118.995 393.101 117.483 400.866 115.772C405.944 114.644 409.343 113.783 411.655 113.088C411.874 113.088 412.102 113.088 412.337 113.088C414.106 113.088 416.283 112.734 418.502 112.37C420.337 112.028 422.191 111.798 424.055 111.682C423.851 120.138 414.907 127.936 407.004 134.813ZM415.362 87.6551L415.982 86.5836C416.314 86.0158 416.683 85.3841 417.1 84.6584C420.934 77.9844 423.226 77.1873 429.727 76.127L430.833 75.9503L431.311 75.8713L431.596 75.8299L431.939 75.7811C432.588 75.6865 433.244 75.6375 433.9 75.6344C436.32 75.6344 437.63 76.3864 437.811 77.0707C438.073 78.0709 436.339 79.8419 431.92 81.3647C431.745 81.4225 431.58 81.5048 431.43 81.6091C430.243 81.673 428.895 81.767 427.577 81.8873C427.234 81.9174 426.891 81.9512 426.556 81.9888C426.22 82.0264 425.87 82.064 425.538 82.1016C424.551 82.2129 423.569 82.3735 422.598 82.5829C422.475 82.607 422.357 82.6558 422.254 82.7264C422.15 82.7969 422.063 82.8876 421.997 82.9927C422.091 82.841 422.242 82.7306 422.417 82.6844L422.568 84.2185C422.756 84.2091 422.94 84.1521 423.099 84.0531C423.485 83.9703 423.908 83.8914 424.398 83.8162C424.722 83.7673 425.065 83.7184 425.427 83.6733C425.789 83.6282 426.101 83.5906 426.456 83.5492C428.991 83.2636 431.54 83.1042 434.093 83.0717C435.634 83.1431 436.02 83.38 436.089 83.5417C436.309 84.023 435.742 86.4896 433.392 87.5236C432.794 87.7868 432.316 87.9898 431.927 88.1552C431.357 88.2267 430.386 88.3244 429.384 88.4259L428.428 88.5199C426.205 88.7418 424.255 88.9411 422.818 89.1216L422.46 89.1667L421.797 89.2607C421.369 89.3246 421.026 89.3885 420.764 89.4487L420.579 89.4938C420.438 89.5297 420.295 89.5586 420.151 89.5803C419.179 89.7429 418.226 90.0024 417.308 90.3548L417.897 91.7836C418.46 91.5644 419.04 91.3896 419.631 91.261C419.94 91.1896 420.217 91.1407 420.444 91.0993L420.672 91.0542C420.79 91.0342 420.907 91.0079 421.022 90.9752C421.26 90.9145 421.5 90.8668 421.743 90.8324C423.238 90.588 426.267 90.2872 428.59 90.054L429.234 89.9901L430.028 89.9111C430.103 90.0487 430.211 90.1662 430.344 90.2533L430.367 90.2721C430.362 90.638 430.261 90.9967 430.074 91.3136C429.977 91.5242 429.854 91.7648 429.688 92.0656C429.353 92.5988 428.885 93.041 428.328 93.3516C428.155 93.4594 427.976 93.5586 427.793 93.6486C427.372 93.8587 426.936 94.0409 426.49 94.1938C426.078 94.3404 425.669 94.4683 425.284 94.5698C423.25 94.5247 420.514 95.5963 418.244 96.5137L417.99 96.6152L417.03 96.9912C416.595 97.1642 416.186 97.3146 415.874 97.4124C415.729 97.4628 415.58 97.4993 415.427 97.5214H415.246L414.961 97.6831L415.346 98.3185L415.524 98.6268L415.558 99.0479C415.643 99.0479 415.736 99.0254 415.836 99.0066C416.218 98.9236 416.593 98.8104 416.957 98.6682C417.408 98.5027 417.947 98.2922 418.606 98.0215C419.828 97.5289 421.304 96.9273 422.687 96.5175C422.797 96.6781 422.949 96.8078 423.126 96.8935C423.932 97.3033 423.897 97.668 423.897 97.8222C423.666 99.9541 416.78 103.786 415.331 104.177C413.983 104.555 412.747 105.244 411.728 106.184C411.043 106.778 410.525 107.533 410.221 108.377C410.149 108.62 410.12 108.875 410.137 109.129C410.142 109.218 410.155 109.308 410.175 109.395C410.024 109.815 409.957 110.26 409.979 110.704C409.817 110.596 409.662 110.478 409.516 110.351C409.307 110.159 409.119 109.946 408.958 109.715C408.776 109.467 408.625 109.2 408.507 108.918C407.239 105.801 409.57 100.755 410.965 97.7395C411.397 96.8108 411.736 96.0776 411.917 95.5324C412.984 92.3439 413.597 90.87 414.495 89.193C414.734 88.723 415.019 88.2191 415.346 87.6551H415.362ZM451.074 82.9401C452.277 85.2638 447.371 88.7004 443.599 91.073C445.526 88.065 447.56 84.9968 449.267 82.3949C450.134 82.3084 450.801 82.44 451.059 82.9401H451.074ZM332.978 147.838C329.086 144.006 326.015 140.979 325.178 140.224C321.032 136.464 315.106 127.21 314.913 118.329C314.809 113.441 316.454 109.305 319.78 106.023C328.026 97.9199 332.662 97.3748 341.898 96.3257C344.353 96.0437 347.139 95.7241 350.375 95.1977C360.093 93.6711 392.23 90.0202 412.668 89.2532C411.769 91.1318 411.008 93.0706 410.391 95.0548C410.237 95.5173 409.894 96.2543 409.501 97.104C408.006 100.345 405.501 105.752 407.015 109.489C407.336 110.277 407.843 110.979 408.495 111.539C408.617 111.793 408.789 112.021 409 112.212C400.723 114.415 386.188 117.261 382.608 117.698C376.316 118.45 369.21 119.476 363.6 120.401C361.249 120.777 359.435 121.112 358.017 121.39C356.178 121.589 349.058 122.732 345.239 124.996L346.06 126.312C347.878 125.236 350.533 124.432 352.934 123.864C353.034 124.033 353.454 124.616 364.598 132.241C368.239 134.738 370.763 136.437 372.54 137.595L352.055 165.844L352.217 166.175H351.79C346.168 160.836 338.168 152.951 332.978 147.838ZM192.716 118.679C203.583 107.831 216.884 101.357 228.317 101.357H228.356C235.897 101.357 242.405 104.068 247.696 109.38C262.072 123.819 268.97 134.918 276.272 146.668C279.355 151.654 282.526 156.73 286.341 162.272L285.901 169.815C278.195 170.687 270.006 171.729 261.39 172.891C259.487 170.68 257.005 167.251 254.204 163.359C244.335 149.68 230.822 130.948 218.456 130.534C206.673 130.158 197.121 142.942 190.805 151.44L189.707 152.91C189.449 153.252 188.971 153.891 188.323 154.764C169.893 179.486 165.069 185.31 164.267 185.844C164.299 185.826 164.333 185.811 164.367 185.799L164.753 186.927C155.327 188.269 146.002 189.559 136.885 190.762C151.79 168.623 172.771 138.596 192.712 118.679H192.716Z" fill="black"/>
</svg>
